<svg width="41" height="41" viewBox="0 0 41 41" fill="none" xmlns="http://www.w3.org/2000/svg">
<g id="Group 8012">
<path id="Vector" d="M25.4233 22.4399C22.8043 25.1244 22.4114 30.022 19.4781 33.6887C19.0648 34.3349 18.4955 34.8666 17.8227 35.2349C17.1498 35.6033 16.3951 35.7963 15.6281 35.7963C14.8611 35.7963 14.1064 35.6033 13.4335 35.2349C12.7607 34.8666 12.1914 34.3349 11.7781 33.6887C10.0757 31.2923 12.5245 23.959 14.2924 20.0173C16.8198 14.4256 21.1674 7.31491 23.4591 5.61253C26.6412 3.26848 30.7531 7.35419 28.6972 10.4447C25.0894 15.7114 21.9852 21.3059 19.4257 27.1542C18.2995 30.2578 15.5757 29.6947 14.9079 27.6256C13.8472 24.1685 17.8674 18.1054 17.8674 18.1054" stroke="#2B2A29" stroke-width="0.7" stroke-linecap="round" stroke-linejoin="round"/>
<path id="Vector_2" d="M21.2302 13.2776C21.8943 12.0171 20.9594 10.2191 19.1422 9.26183C17.3249 8.30452 15.3134 8.55034 14.6494 9.8109C13.9853 11.0714 14.9202 12.8694 16.7374 13.8267C18.5547 14.784 20.5661 14.5382 21.2302 13.2776Z" fill="white" stroke="#2B2A29" stroke-width="0.7" stroke-linecap="round" stroke-linejoin="round"/>
<path id="Vector_3" d="M19.6351 12.322C19.8575 11.8997 19.348 11.1939 18.497 10.7455C17.6459 10.2972 16.7757 10.2761 16.5532 10.6985C16.3307 11.1208 16.8403 11.8266 17.6913 12.2749C18.5424 12.7232 19.4126 12.7443 19.6351 12.322Z" fill="#BCF4AB" stroke="#2B2A29" stroke-width="0.7" stroke-linecap="round" stroke-linejoin="round"/>
<path id="Vector_4" d="M28.796 18.6372C29.5377 17.4207 28.7173 15.5678 26.9636 14.4986C25.2098 13.4293 23.1869 13.5487 22.4452 14.7652C21.7035 15.9817 22.524 17.8347 24.2777 18.9039C26.0314 19.9731 28.0544 19.8537 28.796 18.6372Z" fill="white" stroke="#2B2A29" stroke-width="0.7" stroke-linecap="round" stroke-linejoin="round"/>
<path id="Vector_5" d="M27.2566 17.5992C27.5051 17.1917 27.0407 16.4553 26.2194 15.9546C25.3981 15.4539 24.5309 15.3784 24.2824 15.7859C24.034 16.1935 24.4983 16.9298 25.3196 17.4305C26.1409 17.9312 27.0081 18.0068 27.2566 17.5992Z" fill="#BCF4AB" stroke="#2B2A29" stroke-width="0.7" stroke-linecap="round" stroke-linejoin="round"/>
<path id="Vector_6" d="M23.3024 7.82573C23.3024 7.82573 20.6833 5.20668 17.7107 6.31977" stroke="#2B2A29" stroke-width="0.7" stroke-linecap="round" stroke-linejoin="round"/>
<path id="Vector_7" d="M26.812 12.0551C26.812 12.0551 30.6751 13.4956 30.4787 16.7039" stroke="#2B2A29" stroke-width="0.7" stroke-linecap="round" stroke-linejoin="round"/>
</g>
</svg>
