<svg width="30" height="31" viewBox="0 0 30 31" fill="none" xmlns="http://www.w3.org/2000/svg">
<path d="M6.91721 5.12048H0.484863V30H21.8933V26.4043V25.256V5.12048H6.91721Z" fill="white" stroke="#2B2A29" stroke-width="0.5" stroke-linecap="round" stroke-linejoin="round"/>
<path d="M6.58856 10.4763H2.9248V14.1401H6.58856V10.4763Z" fill="#BDF0F4" stroke="#2B2A29" stroke-width="0.5" stroke-linecap="round" stroke-linejoin="round"/>
<path d="M6.58856 16.4554H2.9248V20.1192H6.58856V16.4554Z" fill="#BDF0F4" stroke="#2B2A29" stroke-width="0.5" stroke-linecap="round" stroke-linejoin="round"/>
<path d="M7.98999 12.3082H14.8831" stroke="#2B2A29" stroke-width="0.5" stroke-linecap="round" stroke-linejoin="round"/>
<path d="M6.58856 22.4346H2.9248V26.0983H6.58856V22.4346Z" fill="#BDF0F4" stroke="#2B2A29" stroke-width="0.5" stroke-linecap="round" stroke-linejoin="round"/>
<path d="M7.98999 24.2664H14.8831" stroke="#2B2A29" stroke-width="0.5" stroke-linecap="round" stroke-linejoin="round"/>
<path d="M7.98999 18.2874H11.7973" stroke="#2B2A29" stroke-width="0.5" stroke-linecap="round" stroke-linejoin="round"/>
<path d="M21.8783 25.2558C25.6999 25.2558 28.7979 22.1578 28.7979 18.3362C28.7979 14.5146 25.6999 11.4166 21.8783 11.4166C18.0567 11.4166 14.9587 14.5146 14.9587 18.3362C14.9587 22.1578 18.0567 25.2558 21.8783 25.2558Z" fill="white" stroke="#2B2A29" stroke-width="0.5" stroke-linecap="round" stroke-linejoin="round"/>
<path d="M13.7387 3.80981C13.7387 3.73427 13.7387 3.65495 13.7387 3.57941C13.7759 3.2552 13.7441 2.92679 13.6455 2.6157C13.5469 2.30462 13.3837 2.0179 13.1665 1.77434C12.9493 1.53078 12.683 1.33588 12.3852 1.20243C12.0874 1.06899 11.7648 1 11.4384 1C11.1121 1 10.7894 1.06899 10.4916 1.20243C10.1938 1.33588 9.92759 1.53078 9.71039 1.77434C9.49319 2.0179 9.32993 2.30462 9.23132 2.6157C9.13271 2.92679 9.10097 3.2552 9.13819 3.57941C9.13819 3.62474 9.13819 3.66629 9.13819 3.71161C8.2325 3.93806 7.42841 4.46057 6.8536 5.1962C6.27879 5.93182 5.9662 6.83839 5.96545 7.77196H16.5715C16.5707 6.89878 16.2973 6.04764 15.7894 5.33733C15.2816 4.62703 14.5646 4.09301 13.7387 3.80981ZM11.4384 4.94293C11.1901 4.94368 10.9471 4.87068 10.7403 4.73317C10.5335 4.59567 10.3722 4.39986 10.2768 4.17058C10.1815 3.94129 10.1563 3.68884 10.2046 3.44524C10.2528 3.20164 10.3724 2.97785 10.548 2.80225C10.7236 2.62665 10.9473 2.50714 11.1909 2.45888C11.4345 2.41061 11.687 2.43577 11.9163 2.53114C12.1456 2.62652 12.3414 2.78784 12.4789 2.99463C12.6164 3.20142 12.6894 3.44439 12.6886 3.69273C12.6891 3.85722 12.6572 4.0202 12.5946 4.17232C12.5319 4.32444 12.4399 4.46271 12.3238 4.5792C12.2077 4.69569 12.0697 4.78812 11.9177 4.85119C11.7658 4.91425 11.6029 4.94671 11.4384 4.94671V4.94293Z" fill="#BDF0F4" stroke="#2B2A29" stroke-width="0.5" stroke-linecap="round" stroke-linejoin="round"/>
<path d="M26.4484 17.562H22.7053V13.8152H21.0812V17.562H17.3381V19.1862H21.0812V22.9292H22.7053V19.1862H26.4484V17.562Z" fill="#BDF0F4" stroke="#2B2A29" stroke-width="0.5" stroke-linecap="round" stroke-linejoin="round"/>
</svg>
