<svg width="42" height="42" viewBox="0 0 42 42" fill="none" xmlns="http://www.w3.org/2000/svg">
<g id="Group 9981">
<g id="Group 9971">
<rect id="Rectangle 1" x="0.25" y="0.25" width="41.5" height="41.5" rx="9.75" stroke="#B1B5BF" stroke-width="0.5"/>
</g>
<g id="&#208;&#161;&#208;&#187;&#208;&#190;&#208;&#185; 3">
<path id="Vector" d="M18.1895 29.276C18.8881 28.5483 18.8881 27.399 18.1895 26.6713L15.806 24.1884C15.1958 23.5528 15.6463 22.4959 16.5274 22.4959H32.0784C32.8635 22.4959 33.5 21.8594 33.5 21.0743C33.5 20.2892 32.8635 19.6527 32.0784 19.6527H16.6047C15.7236 19.6527 15.2732 18.5958 15.8833 17.9602L18.421 15.3168C19.1201 14.5885 19.1208 13.4386 18.4225 12.7095C18.052 12.3226 17.4337 12.3223 17.0628 12.7089L10.3286 19.7275C9.58611 20.5014 9.5861 21.7231 10.3286 22.4969L16.8327 29.2758C17.2027 29.6614 17.8194 29.6615 18.1895 29.276Z" fill="#F5F3B5" stroke="#B1B5BF" stroke-linecap="round" stroke-linejoin="round"/>
</g>
</g>
</svg>
