<svg width="30" height="31" viewBox="0 0 30 31" fill="none" xmlns="http://www.w3.org/2000/svg">
<path d="M23.4547 25.371H27.9611C28.1917 25.3715 28.4201 25.3265 28.6332 25.2386C28.8464 25.1507 29.0402 25.0216 29.2034 24.8587C29.3666 24.6958 29.4961 24.5024 29.5845 24.2894C29.6728 24.0764 29.7183 23.8481 29.7183 23.6175V2.75724C29.7183 2.29119 29.5332 1.84423 29.2036 1.51468C28.8741 1.18514 28.4271 1 27.9611 1H2.35294C1.88689 1 1.43993 1.18514 1.11039 1.51468C0.78084 1.84423 0.595703 2.29119 0.595703 2.75724V23.6175C0.595703 23.8481 0.641182 24.0764 0.729537 24.2894C0.817892 24.5024 0.947388 24.6958 1.11061 24.8587C1.27383 25.0216 1.46758 25.1507 1.68076 25.2386C1.89393 25.3265 2.12235 25.3715 2.35294 25.371H6.85563" fill="#F5E9AA"/>
<path d="M23.4547 25.371H27.9611C28.1917 25.3715 28.4201 25.3265 28.6332 25.2386C28.8464 25.1507 29.0402 25.0216 29.2034 24.8587C29.3666 24.6958 29.4961 24.5024 29.5845 24.2894C29.6728 24.0764 29.7183 23.8481 29.7183 23.6175V2.75724C29.7183 2.29119 29.5332 1.84423 29.2036 1.51468C28.8741 1.18514 28.4271 1 27.9611 1H2.35294C1.88689 1 1.43993 1.18514 1.11039 1.51468C0.78084 1.84423 0.595703 2.29119 0.595703 2.75724V23.6175C0.595703 23.8481 0.641182 24.0764 0.729537 24.2894C0.817892 24.5024 0.947388 24.6958 1.11061 24.8587C1.27383 25.0216 1.46758 25.1507 1.68076 25.2386C1.89393 25.3265 2.12235 25.3715 2.35294 25.371H6.85563" stroke="#2B2A29" stroke-width="0.5" stroke-linecap="round" stroke-linejoin="round"/>
<path d="M0.599609 7.21484H29.7185H0.599609Z" fill="white"/>
<path d="M0.599609 7.21484H29.7185" stroke="#2B2A29" stroke-width="0.5" stroke-linecap="round" stroke-linejoin="round"/>
<path d="M3.91699 4.41016H13.4982" stroke="#2B2A29" stroke-width="0.5" stroke-linecap="round" stroke-linejoin="round"/>
<path d="M19.4021 4.90385C19.6771 4.90385 19.8999 4.68096 19.8999 4.40603C19.8999 4.13109 19.6771 3.9082 19.4021 3.9082C19.1272 3.9082 18.9043 4.13109 18.9043 4.40603C18.9043 4.68096 19.1272 4.90385 19.4021 4.90385Z" fill="white" stroke="#2B2A29" stroke-width="0.5" stroke-linecap="round" stroke-linejoin="round"/>
<path d="M22.742 4.90385C23.0169 4.90385 23.2398 4.68096 23.2398 4.40603C23.2398 4.13109 23.0169 3.9082 22.742 3.9082C22.467 3.9082 22.2441 4.13109 22.2441 4.40603C22.2441 4.68096 22.467 4.90385 22.742 4.90385Z" fill="white" stroke="#2B2A29" stroke-width="0.5" stroke-linecap="round" stroke-linejoin="round"/>
<path d="M25.907 4.90385C26.1819 4.90385 26.4048 4.68096 26.4048 4.40603C26.4048 4.13109 26.1819 3.9082 25.907 3.9082C25.6321 3.9082 25.4092 4.13109 25.4092 4.40603C25.4092 4.68096 25.6321 4.90385 25.907 4.90385Z" fill="white" stroke="#2B2A29" stroke-width="0.5" stroke-linecap="round" stroke-linejoin="round"/>
<path d="M15.1593 30.0003C20.5453 30.0003 24.9115 25.6342 24.9115 20.2482C24.9115 14.8623 20.5453 10.4961 15.1593 10.4961C9.7734 10.4961 5.40723 14.8623 5.40723 20.2482C5.40723 25.6342 9.7734 30.0003 15.1593 30.0003Z" fill="white" stroke="#2B2A29" stroke-width="0.5" stroke-linecap="round" stroke-linejoin="round"/>
<path d="M21.8462 20.7384L15.1591 14.0995L8.62793 20.7384H10.2106V25.3711H20.297V20.7384H21.8462Z" fill="#F5E9AA" stroke="#2B2A29" stroke-width="0.5" stroke-linecap="round" stroke-linejoin="round"/>
<path d="M13.7217 25.3706V22.9669C13.7217 22.6152 13.8614 22.2778 14.1101 22.0291C14.3589 21.7804 14.6962 21.6406 15.048 21.6406H15.334C15.6845 21.6426 16.0199 21.7832 16.2671 22.0317C16.5142 22.2802 16.6529 22.6164 16.6529 22.9669V25.3706" stroke="#2B2A29" stroke-width="0.5" stroke-linecap="round" stroke-linejoin="round"/>
</svg>
