<svg width="31" height="31" viewBox="0 0 31 31" fill="none" xmlns="http://www.w3.org/2000/svg">
<path d="M3.45486 1.00006H14.7635C15.0644 0.997945 15.3627 1.05538 15.6413 1.16907C15.9199 1.28275 16.1732 1.45043 16.3867 1.66244C16.6002 1.87446 16.7697 2.12662 16.8853 2.4044C17.0009 2.68219 17.0605 2.98011 17.0605 3.281V10.2639C17.0605 10.8688 16.8202 11.449 16.3924 11.8767C15.9646 12.3045 15.3845 12.5448 14.7795 12.5448H9.39731L7.30445 14.6417V12.5448H3.45486C2.84955 12.5448 2.26897 12.3046 1.84058 11.877C1.41218 11.4493 1.17098 10.8692 1.16992 10.2639V3.281C1.17098 2.67569 1.41218 2.09553 1.84058 1.66788C2.26897 1.24024 2.84955 1.00006 3.45486 1.00006Z" fill="#FEFFFC" stroke="#2B2A29" stroke-width="0.5" stroke-linecap="round" stroke-linejoin="round"/>
<path d="M3.63867 6.0061H15.7637" stroke="#2B2A29" stroke-width="0.5" stroke-linecap="round" stroke-linejoin="round"/>
<path d="M3.63867 8.20312H15.7637" stroke="#2B2A29" stroke-width="0.5" stroke-linecap="round" stroke-linejoin="round"/>
<path d="M3.63867 10.3318H15.7637" stroke="#2B2A29" stroke-width="0.5" stroke-linecap="round" stroke-linejoin="round"/>
<path d="M22.9109 23.7129C24.5574 23.7129 25.8921 22.3782 25.8921 20.7317C25.8921 19.0852 24.5574 17.7505 22.9109 17.7505C21.2644 17.7505 19.9297 19.0852 19.9297 20.7317C19.9297 22.3782 21.2644 23.7129 22.9109 23.7129Z" fill="#FEFFFC" stroke="#2B2A29" stroke-width="0.5" stroke-linecap="round" stroke-linejoin="round"/>
<path d="M16.7804 30C16.7595 29.182 16.9026 28.3682 17.2012 27.6063C17.4998 26.8445 17.9479 26.1501 18.519 25.5642C19.0902 24.9783 19.7728 24.5126 20.5268 24.1947C21.2807 23.8767 22.0907 23.7129 22.909 23.7129C23.7272 23.7129 24.5372 23.8767 25.2911 24.1947C26.0451 24.5126 26.7278 24.9783 27.2989 25.5642C27.8701 26.1501 28.3182 26.8445 28.6167 27.6063C28.9153 28.3682 29.0584 29.182 29.0375 30" fill="#FEFFFC"/>
<path d="M16.7804 30C16.7595 29.182 16.9026 28.3682 17.2012 27.6063C17.4998 26.8445 17.9479 26.1501 18.519 25.5642C19.0902 24.9783 19.7728 24.5126 20.5268 24.1947C21.2807 23.8767 22.0907 23.7129 22.909 23.7129C23.7272 23.7129 24.5372 23.8767 25.2911 24.1947C26.0451 24.5126 26.7278 24.9783 27.2989 25.5642C27.8701 26.1501 28.3182 26.8445 28.6167 27.6063C28.9153 28.3682 29.0584 29.182 29.0375 30" stroke="#2B2A29" stroke-width="0.5" stroke-linecap="round" stroke-linejoin="round"/>
<path d="M29.0372 30H16.7802" stroke="#2B2A29" stroke-width="0.5" stroke-linecap="round" stroke-linejoin="round"/>
<path d="M7.30447 23.7129C8.95096 23.7129 10.2857 22.3782 10.2857 20.7317C10.2857 19.0852 8.95096 17.7505 7.30447 17.7505C5.65798 17.7505 4.32324 19.0852 4.32324 20.7317C4.32324 22.3782 5.65798 23.7129 7.30447 23.7129Z" fill="#FEFFFC" stroke="#2B2A29" stroke-width="0.5" stroke-linecap="round" stroke-linejoin="round"/>
<path d="M1.17412 30C1.15322 29.182 1.29628 28.3682 1.59486 27.6063C1.89345 26.8445 2.34153 26.1501 2.91269 25.5642C3.48384 24.9783 4.16651 24.5126 4.92046 24.1947C5.67442 23.8767 6.48439 23.7129 7.30264 23.7129C8.1209 23.7129 8.93087 23.8767 9.68482 24.1947C10.4388 24.5126 11.1214 24.9783 11.6926 25.5642C12.2638 26.1501 12.7118 26.8445 13.0104 27.6063C13.309 28.3682 13.4521 29.182 13.4312 30" fill="#FEFFFC"/>
<path d="M1.17412 30C1.15322 29.182 1.29628 28.3682 1.59486 27.6063C1.89345 26.8445 2.34153 26.1501 2.91269 25.5642C3.48384 24.9783 4.16651 24.5126 4.92046 24.1947C5.67442 23.8767 6.48439 23.7129 7.30264 23.7129C8.1209 23.7129 8.93087 23.8767 9.68482 24.1947C10.4388 24.5126 11.1214 24.9783 11.6926 25.5642C12.2638 26.1501 12.7118 26.8445 13.0104 27.6063C13.309 28.3682 13.4521 29.182 13.4312 30" stroke="#2B2A29" stroke-width="0.5" stroke-linecap="round" stroke-linejoin="round"/>
<path d="M13.4309 30H1.17383" stroke="#2B2A29" stroke-width="0.5" stroke-linecap="round" stroke-linejoin="round"/>
<path d="M27.5487 3.36902H14.2313C13.9317 3.36902 13.6351 3.42802 13.3584 3.54264C13.0816 3.65727 12.8302 3.82529 12.6184 4.03709C12.4066 4.24889 12.2386 4.50034 12.1239 4.77708C12.0093 5.05382 11.9503 5.35042 11.9503 5.64996V12.6328C11.9503 12.9324 12.0093 13.229 12.1239 13.5057C12.2386 13.7824 12.4066 14.0339 12.6184 14.2457C12.8302 14.4575 13.0816 14.6255 13.3584 14.7401C13.6351 14.8548 13.9317 14.9138 14.2313 14.9138H20.3298L22.4226 17.0066V14.9138H27.5487C27.8483 14.9138 28.1449 14.8548 28.4216 14.7401C28.6984 14.6255 28.9498 14.4575 29.1616 14.2457C29.3734 14.0339 29.5414 13.7824 29.6561 13.5057C29.7707 13.229 29.8297 12.9324 29.8297 12.6328V5.64996C29.8297 5.04501 29.5894 4.46485 29.1616 4.03709C28.7339 3.60933 28.1537 3.36902 27.5487 3.36902Z" fill="#FEFFFC" stroke="#2B2A29" stroke-width="0.5" stroke-linecap="round" stroke-linejoin="round"/>
<path d="M14.9795 6.70642H21.2861" stroke="#2B2A29" stroke-width="0.5" stroke-linecap="round" stroke-linejoin="round"/>
<path d="M14.9795 9.12341H27.1045" stroke="#2B2A29" stroke-width="0.5" stroke-linecap="round" stroke-linejoin="round"/>
<path d="M3.63867 3.58911H9.94527" stroke="#2B2A29" stroke-width="0.5" stroke-linecap="round" stroke-linejoin="round"/>
<path d="M14.9795 11.5404H27.1045" stroke="#2B2A29" stroke-width="0.5" stroke-linecap="round" stroke-linejoin="round"/>
</svg>
