<svg width="35" height="35" viewBox="0 0 35 35" fill="none" xmlns="http://www.w3.org/2000/svg">
<g id="Group 7800">
<rect id="Rectangle 399" x="0.15" y="0.15" width="34.7" height="34.7" rx="17.35" fill="#B5DEF5" stroke="#2B2A29" stroke-width="0.3"/>
<rect id="Rectangle 385" x="0.15" y="0.15" width="34.7" height="34.7" rx="17.35" stroke="#2B2A29" stroke-width="0.3"/>
<g id="Mask group">
<mask id="mask0_23_1801" style="mask-type:alpha" maskUnits="userSpaceOnUse" x="0" y="0" width="35" height="35">
<rect id="Rectangle 338" x="0.15" y="0.15" width="34.7" height="34.7" rx="17.35" fill="#B5DEF5" stroke="#2B2A29" stroke-width="0.3"/>
</mask>
<g mask="url(#mask0_23_1801)">
<path id="Vector" d="M2.62598 37.1187V32.1094C2.62598 32.1094 12.8154 28.1719 13.7691 25.77C13.8129 25.3994 13.8129 25.025 13.7691 24.6544C13.7691 24.6544 11.5335 22.7075 11.5816 20.6337C11.5816 20.6337 10.6322 20.3056 10.5491 18.8137C10.466 17.3219 11.166 17.23 11.166 17.23C11.166 17.23 10.5797 12.2687 12.041 10.3394C13.5022 8.41 15.2304 7.9375 17.8029 7.9375C20.3754 7.9375 21.3641 8.515 22.646 10.09C23.9279 11.665 23.8054 14.8106 23.7266 17.0506C23.7266 17.0506 24.3041 17.3394 24.3041 18.5381C24.3041 19.7369 23.6829 20.1131 23.311 20.485C23.0208 22.0693 22.2583 23.5288 21.1235 24.6719V25.7481C21.1235 25.7481 23.9279 29.3094 31.9735 32.0831V37.495L2.62598 37.1187Z" fill="white" stroke="#2B2A29" stroke-width="0.3" stroke-linecap="round" stroke-linejoin="round"/>
<path id="Vector_2" d="M31.6942 32.1842V37.2198L2.78418 36.8523V32.2061L3.08605 32.088C3.36605 31.9742 3.76855 31.8123 4.25855 31.6067C5.2298 31.1998 6.53793 30.6311 7.8723 29.9836C9.18067 29.3688 10.4503 28.6748 11.6742 27.9055L11.9454 27.7261C13.5643 29.016 15.6134 29.6417 17.6767 29.4761C19.5062 29.3407 21.2522 28.656 22.6861 27.5117C22.8829 27.6692 23.1236 27.8311 23.3336 28.0017C25.9045 29.7912 28.7204 31.1999 31.6942 32.1842Z" fill="#C5CEFB"/>
<path id="Vector_3" d="M23.3634 12.9951L22.1209 11.2451C22.0268 11.1314 21.9111 11.0376 21.7804 10.9691C21.6497 10.9006 21.5066 10.8588 21.3596 10.8462C21.2126 10.8336 21.0645 10.8503 20.9241 10.8956C20.7836 10.9408 20.6535 11.0135 20.5415 11.1095C19.824 11.7351 18.6865 12.492 17.4002 12.492C16.2588 12.4199 15.1771 11.9564 14.3377 11.1795C14.2204 11.0793 14.0836 11.0047 13.9358 10.9603C13.7881 10.9159 13.6327 10.9027 13.4797 10.9217C13.3266 10.9406 13.1791 10.9912 13.0466 11.0702C12.9142 11.1493 12.7996 11.255 12.7102 11.3808L11.2402 13.1876C11.2729 12.7968 11.3284 12.4082 11.4065 12.0239C11.508 11.3717 11.7498 10.7492 12.1152 10.1995C12.7071 9.36524 13.5297 8.72202 14.4821 8.34889C15.5166 7.99897 16.6065 7.84178 17.6977 7.88514C18.6581 7.8317 19.6185 7.99002 20.5109 8.34889C21.2469 8.73442 21.8834 9.28555 22.3702 9.95889C22.9565 10.6808 23.2409 11.7745 23.3634 12.9951Z" fill="#F2D1BF" stroke="#2B2A29" stroke-width="0.3" stroke-miterlimit="10" stroke-linecap="round"/>
<path id="Vector_4" d="M15.1768 22.2178C15.1768 22.2178 17.4343 24.4753 19.6918 22.2178" stroke="#2B2A29" stroke-width="0.3" stroke-miterlimit="10" stroke-linecap="round"/>
<path id="Vector_5" d="M15.9566 17.0723C15.9566 17.0723 15.2523 17.9473 14.3816 17.9473C13.511 17.9473 12.8066 17.0723 12.8066 17.0723C12.8066 17.0723 13.511 16.1973 14.3816 16.1973C15.2523 16.1973 15.9566 17.0723 15.9566 17.0723Z" stroke="#2B2A29" stroke-width="0.3" stroke-miterlimit="10" stroke-linecap="round"/>
<path id="Vector_6" d="M22.0807 17.0713C22.0807 17.0713 21.3763 17.9463 20.5057 17.9463C19.635 17.9463 18.9307 17.0713 18.9307 17.0713" stroke="#2B2A29" stroke-width="0.3" stroke-miterlimit="10" stroke-linecap="round"/>
<path id="Vector_7" d="M12.5259 15.8111C12.847 15.4783 13.2505 15.2362 13.6953 15.1094C14.1402 14.9827 14.6106 14.9757 15.059 15.0892C15.5291 15.1691 15.963 15.3922 16.3015 15.728C16.5347 16.0348 16.6744 16.4024 16.704 16.7867C16.7747 17.6554 16.7157 18.5298 16.529 19.3811C16.4677 19.7311 16.4021 20.0767 16.3584 20.4311C16.3298 20.5499 16.3393 20.6747 16.3857 20.7878C16.432 20.9009 16.5127 20.9965 16.6165 21.0611C16.9662 21.2497 17.3648 21.3281 17.76 21.2859C18.1551 21.2438 18.5282 21.083 18.8302 20.8249C19.0446 20.6236 18.7209 20.2955 18.5065 20.5011C18.2036 20.7452 17.8175 20.8614 17.4302 20.8249C17.2202 20.8249 16.8265 20.7811 16.8046 20.5361C16.8079 20.3702 16.8329 20.2055 16.879 20.0461C16.9096 19.8492 16.9446 19.6524 16.9796 19.4599C17.0496 19.0224 17.1109 18.6199 17.1546 18.1999C17.2987 17.3978 17.22 16.5715 16.9271 15.8111C16.5596 15.0542 15.6934 14.6911 14.9015 14.5774C14.4159 14.4973 13.9181 14.5371 13.4514 14.6934C12.9847 14.8497 12.5634 15.1178 12.224 15.4742C12.0184 15.6886 12.3421 16.0124 12.5477 15.798L12.5259 15.8111Z" fill="#2B2A29"/>
<path id="Vector_8" d="M14.3809 17.5107C14.6225 17.5107 14.8184 17.3149 14.8184 17.0732C14.8184 16.8316 14.6225 16.6357 14.3809 16.6357C14.1392 16.6357 13.9434 16.8316 13.9434 17.0732C13.9434 17.3149 14.1392 17.5107 14.3809 17.5107Z" stroke="#2B2A29" stroke-width="0.3" stroke-miterlimit="10" stroke-linecap="round"/>
<path id="Vector_9" d="M13.4941 24.3965C13.4941 24.3965 15.4279 25.9759 16.0448 26.1115C16.6616 26.2471 18.1841 26.374 18.906 26.1115C19.781 25.7921 21.2773 24.5102 21.2773 24.5102" stroke="#2B2A29" stroke-width="0.3" stroke-miterlimit="10" stroke-linecap="round"/>
<path id="Vector_10" d="M11.9834 27.6563C12.1341 27.8207 12.3028 27.9675 12.4865 28.0938V28.0938C13.2158 28.64 14.0546 29.022 14.9453 29.2138H14.9715C15.857 29.4107 16.7646 29.4902 17.6709 29.4501C19.8934 29.3757 21.2759 28.6713 22.1203 27.897C22.3424 27.6981 22.5432 27.4767 22.7196 27.2363" stroke="#2B2A29" stroke-width="0.3" stroke-miterlimit="10" stroke-linecap="round"/>
<path id="Vector_11" d="M7.2134 19.1406C6.99815 19.14 6.78491 19.1819 6.58589 19.2639C6.38686 19.3459 6.20597 19.4663 6.05357 19.6183C5.90116 19.7703 5.78025 19.9509 5.69774 20.1497C5.61524 20.3485 5.57277 20.5616 5.57277 20.7769C5.57335 20.5618 5.53142 20.3488 5.4494 20.15C5.36737 19.9512 5.24687 19.7706 5.09481 19.6186C4.94276 19.4665 4.76215 19.346 4.56337 19.264C4.36459 19.182 4.15156 19.14 3.93652 19.1406C4.15177 19.1406 4.3649 19.0982 4.5637 19.0157C4.76251 18.9332 4.94308 18.8122 5.09508 18.6598C5.24707 18.5074 5.36751 18.3265 5.44948 18.1275C5.53145 17.9285 5.57335 17.7152 5.57277 17.5C5.57277 17.7154 5.61521 17.9288 5.69766 18.1278C5.78011 18.3269 5.90095 18.5078 6.0533 18.6601C6.20565 18.8124 6.38651 18.9333 6.58556 19.0157C6.78461 19.0982 6.99795 19.1406 7.2134 19.1406Z" fill="white" stroke="#2B2A29" stroke-width="0.3" stroke-linecap="round" stroke-linejoin="round"/>
<path id="Vector_12" d="M17.7144 5.13625C17.4991 5.13625 17.286 5.17872 17.0872 5.26122C16.8884 5.34372 16.7078 5.46464 16.5558 5.61704C16.4038 5.76945 16.2834 5.95034 16.2014 6.14937C16.1194 6.34839 16.0776 6.56163 16.0781 6.77687C16.0781 6.34175 15.9053 5.92445 15.5976 5.61678C15.2899 5.3091 14.8726 5.13625 14.4375 5.13625C14.6527 5.13683 14.866 5.09493 15.065 5.01296C15.264 4.93098 15.4449 4.81055 15.5973 4.65855C15.7497 4.50656 15.8707 4.32598 15.9532 4.12718C16.0357 3.92837 16.0781 3.71524 16.0781 3.5C16.0775 3.71504 16.1195 3.92807 16.2015 4.12685C16.2835 4.32563 16.404 4.50624 16.5561 4.65829C16.7081 4.81035 16.8887 4.93085 17.0875 5.01287C17.2863 5.0949 17.4993 5.13683 17.7144 5.13625Z" fill="white" stroke="#2B2A29" stroke-width="0.3" stroke-linecap="round" stroke-linejoin="round"/>
<path id="Vector_13" d="M29.5269 23.5112C29.3116 23.5112 29.0985 23.5537 28.8997 23.6362C28.7009 23.7187 28.5203 23.8396 28.3683 23.992C28.2163 24.1444 28.0959 24.3253 28.0139 24.5244C27.9319 24.7234 27.89 24.9366 27.8906 25.1519C27.8906 24.7168 27.7178 24.2995 27.4101 23.9918C27.1024 23.6841 26.6851 23.5112 26.25 23.5112C26.4652 23.5118 26.6785 23.4699 26.8775 23.388C27.0765 23.306 27.2574 23.1856 27.4098 23.0336C27.5622 22.8816 27.6832 22.701 27.7657 22.5022C27.8482 22.3034 27.8906 22.0902 27.8906 21.875C27.89 22.09 27.932 22.3031 28.014 22.5018C28.096 22.7006 28.2165 22.8812 28.3686 23.0333C28.5206 23.1853 28.7012 23.3058 28.9 23.3879C29.0988 23.4699 29.3118 23.5118 29.5269 23.5112Z" fill="white" stroke="#2B2A29" stroke-width="0.3" stroke-linecap="round" stroke-linejoin="round"/>
</g>
</g>
<rect id="Rectangle 398" x="0.15" y="0.15" width="34.7" height="34.7" rx="17.35" stroke="#2B2A29" stroke-width="0.3"/>
</g>
</svg>
