<svg width="20" height="22" viewBox="0 0 20 22" fill="none" xmlns="http://www.w3.org/2000/svg">
<g id="&#208;&#161;&#208;&#187;&#208;&#190;&#208;&#185; 3">
<path id="Vector" d="M1 21V1H12.8138L15.4649 3.65115V21H1Z" fill="#B2E8F9" stroke="#2B2A29" stroke-width="0.5" stroke-linecap="round" stroke-linejoin="round"/>
<path id="Vector_2" d="M12.8125 1.17188V3.54174H15.2373" fill="#C5CEFB"/>
<path id="Vector_3" d="M3.41406 5.73047H4.31933" stroke="#2B2A29" stroke-width="0.5" stroke-linecap="round" stroke-linejoin="round"/>
<path id="Vector_4" d="M5.39844 5.73047H12.8152" stroke="#2B2A29" stroke-width="0.5" stroke-linecap="round" stroke-linejoin="round"/>
<path id="Vector_5" d="M12.8132 8.31641H3.58594" stroke="#2B2A29" stroke-width="0.5" stroke-linecap="round" stroke-linejoin="round"/>
<path id="Vector_6" d="M3.58594 11H10.9574" stroke="#2B2A29" stroke-width="0.5" stroke-linecap="round" stroke-linejoin="round"/>
<path id="Vector_7" d="M3.58594 13.5547H10.8604" stroke="#2B2A29" stroke-width="0.5" stroke-linecap="round" stroke-linejoin="round"/>
<path id="Vector_8" d="M3.58594 16.0742H12.3477" stroke="#2B2A29" stroke-width="0.5" stroke-linecap="round" stroke-linejoin="round"/>
<path id="Vector_9" d="M19.1216 14.0736L17.0363 11.9883L14.7343 14.2903L12.4291 11.9883L10.3438 14.0736L12.649 16.3788L10.3438 18.6808L12.4291 20.7662L14.7343 18.461L17.0363 20.7662L19.1216 18.6808L16.8197 16.3788L19.1216 14.0736Z" fill="#FCBDBD" stroke="#2B2A29" stroke-width="0.5" stroke-linecap="round" stroke-linejoin="round"/>
<path id="Vector_10" d="M12.8125 1V3.65115H15.4636" stroke="#2B2A29" stroke-width="0.5" stroke-linecap="round" stroke-linejoin="round"/>
</g>
</svg>
