<svg width="21" height="22" viewBox="0 0 21 22" fill="none" xmlns="http://www.w3.org/2000/svg">
<g id="Group 10235">
<g id="&#208;&#161;&#208;&#187;&#208;&#190;&#208;&#185; 7">
<path id="Vector" d="M13.2016 4.97656V12.6001L6.91382 16.3467V8.85347L13.2016 4.97656Z" fill="#FCBDBD"/>
<path id="Vector_2" d="M0.625732 12.763L6.91349 16.3467V8.85347L0.625732 4.97656V12.763Z" fill="#F2D1BF" stroke="#2B2A29" stroke-width="0.5" stroke-linecap="round" stroke-linejoin="round"/>
<path id="Vector_3" d="M0.625732 4.97465L6.94607 1L13.2012 4.97465L6.91349 8.85155L0.625732 4.97465Z" fill="#F5E9AA"/>
<path id="Vector_4" d="M12.729 16.7861C14.7928 16.7861 16.4658 15.1131 16.4658 13.0493C16.4658 10.9855 14.7928 9.3125 12.729 9.3125C10.6652 9.3125 8.99219 10.9855 8.99219 13.0493C8.99219 15.1131 10.6652 16.7861 12.729 16.7861Z" fill="white"/>
<path id="Vector_5" d="M16.257 18.0201L17.7426 16.5898L20.5607 19.3884L19.176 21.001L16.257 18.0201Z" fill="#B2E8F9"/>
<path id="Vector_6" d="M0.625732 4.97465L6.94607 1L13.2012 4.97465L6.91349 8.85155L0.625732 4.97465Z" stroke="#2B2A29" stroke-width="0.5" stroke-linecap="round" stroke-linejoin="round"/>
<path id="Vector_7" d="M9.2266 14.9458L6.91349 16.3467L0.625732 12.763V4.97656" stroke="#2B2A29" stroke-width="0.5" stroke-linecap="round" stroke-linejoin="round"/>
<path id="Vector_8" d="M6.91382 8.85156V16.3447" stroke="#2B2A29" stroke-width="0.5" stroke-linecap="round" stroke-linejoin="round"/>
<path id="Vector_9" d="M13.2012 4.97656V9.1141" stroke="#2B2A29" stroke-width="0.5" stroke-linecap="round" stroke-linejoin="round"/>
<path id="Vector_10" d="M12.7291 16.8995C14.8252 16.8995 16.5245 15.2002 16.5245 13.1041C16.5245 11.0079 14.8252 9.30859 12.7291 9.30859C10.6329 9.30859 8.93359 11.0079 8.93359 13.1041C8.93359 15.2002 10.6329 16.8995 12.7291 16.8995Z" stroke="#2B2A29" stroke-width="0.5" stroke-linecap="round" stroke-linejoin="round"/>
<path id="Vector_11" d="M11.3447 12.9605L17.0786 7.22656H20.5646" stroke="#2B2A29" stroke-width="0.5" stroke-linecap="round" stroke-linejoin="round"/>
<path id="Vector_12" d="M20.5643 5.30078H17.0784" stroke="#2B2A29" stroke-width="0.5" stroke-linecap="round" stroke-linejoin="round"/>
<path id="Vector_13" d="M18.5129 9.11719H20.5654" stroke="#2B2A29" stroke-width="0.5" stroke-linecap="round" stroke-linejoin="round"/>
<path id="Vector_14" d="M15.4297 15.7734L16.8338 17.1809" stroke="#2B2A29" stroke-width="0.5" stroke-linecap="round" stroke-linejoin="round"/>
<path id="Vector_15" d="M16.3548 17.79L17.4592 16.6823C17.4895 16.6518 17.5255 16.6275 17.5652 16.611C17.6049 16.5945 17.6475 16.5859 17.6905 16.5859C17.7335 16.5859 17.7761 16.5945 17.8158 16.611C17.8555 16.6275 17.8916 16.6518 17.9218 16.6823L20.4891 19.2332C20.5498 19.2943 20.5838 19.3769 20.5838 19.4629C20.5838 19.549 20.5498 19.6316 20.4891 19.6926L19.3423 20.8296C19.312 20.8602 19.276 20.8844 19.2363 20.9009C19.1966 20.9175 19.154 20.926 19.111 20.926C19.068 20.926 19.0254 20.9175 18.9857 20.9009C18.946 20.8844 18.91 20.8602 18.8797 20.8296L16.3515 18.2559C16.3207 18.2253 16.2963 18.1889 16.2798 18.1488C16.2632 18.1087 16.2548 18.0656 16.2551 18.0222C16.2554 17.9788 16.2644 17.9359 16.2815 17.8961C16.2986 17.8562 16.3235 17.8201 16.3548 17.79V17.79Z" stroke="#2B2A29" stroke-width="0.5" stroke-linecap="round" stroke-linejoin="round"/>
</g>
</g>
</svg>
