<svg width="22" height="22" viewBox="0 0 22 22" fill="none" xmlns="http://www.w3.org/2000/svg">
<g id="Group 7978">
<g id="Group 7778">
<g id="Group 7776">
<path id="Vector" d="M1 21V1H12.8138L15.4649 3.65115V21H1Z" fill="#C6EDC0" stroke="#2B2A29" stroke-width="0.5" stroke-linecap="round" stroke-linejoin="round"/>
<path id="Vector_2" d="M12.8125 1.17188V3.54174H15.2373" fill="#FFFDB9"/>
<path id="Vector_3" d="M3.41406 5.73047H4.31933" stroke="#2B2A29" stroke-width="0.5" stroke-linecap="round" stroke-linejoin="round"/>
<path id="Vector_4" d="M5.39844 5.73047H12.8152" stroke="#2B2A29" stroke-width="0.5" stroke-linecap="round" stroke-linejoin="round"/>
<path id="Vector_5" d="M12.8132 8.31641H3.58594" stroke="#2B2A29" stroke-width="0.5" stroke-linecap="round" stroke-linejoin="round"/>
<path id="Vector_6" d="M3.58594 11H10.9574" stroke="#2B2A29" stroke-width="0.5" stroke-linecap="round" stroke-linejoin="round"/>
<path id="Vector_7" d="M3.58594 13.5547H10.8604" stroke="#2B2A29" stroke-width="0.5" stroke-linecap="round" stroke-linejoin="round"/>
<path id="Vector_8" d="M3.58594 16.0781H11.7688" stroke="#2B2A29" stroke-width="0.5" stroke-linecap="round" stroke-linejoin="round"/>
<path id="Vector_9" d="M12.8125 1V3.65115H15.4636" stroke="#2B2A29" stroke-width="0.5" stroke-linecap="round" stroke-linejoin="round"/>
</g>
</g>
<path id="primary" d="M15.6924 13.9732L17.7883 16.0758L14.0958 19.78H12V17.6775L15.6924 13.9732ZM20.6058 12.5451L19.2118 11.1467C19.1659 11.1002 19.1112 11.0633 19.051 11.0381C18.9907 11.013 18.9261 11 18.8609 11C18.7956 11 18.731 11.013 18.6708 11.0381C18.6106 11.0633 18.5559 11.1002 18.5099 11.1467L17.0863 12.5748L19.1822 14.6774L20.6058 13.2492C20.6521 13.2031 20.6889 13.1483 20.714 13.0879C20.7391 13.0274 20.752 12.9626 20.752 12.8971C20.752 12.8317 20.7391 12.7669 20.714 12.7064C20.6889 12.646 20.6521 12.5912 20.6058 12.5451Z" fill="#C9DADF" stroke="#2B2A29" stroke-width="0.5" stroke-linecap="round" stroke-linejoin="round"/>
</g>
</svg>
