<svg width="11" height="14" viewBox="0 0 11 14" fill="none" xmlns="http://www.w3.org/2000/svg">
<path id="Vector" d="M5.5 11.1847C5.48809 11.172 5.47549 11.1585 5.46225 11.1443C5.34626 11.0197 5.18022 10.8379 4.98082 10.6102C4.58181 10.1546 4.05019 9.51612 3.51902 8.7841C2.98741 8.05148 2.45905 7.22899 2.06429 6.40518C1.66822 5.57862 1.41429 4.76634 1.41429 4.05C1.41429 1.93334 3.23179 0.2 5.5 0.2C7.76821 0.2 9.58571 1.93334 9.58571 4.05C9.58571 4.76634 9.33178 5.57862 8.93571 6.40518C8.54095 7.22899 8.01259 8.05148 7.48098 8.7841C6.94981 9.51612 6.41819 10.1546 6.01918 10.6102C5.81978 10.8379 5.65374 11.0197 5.53775 11.1443C5.52451 11.1585 5.51191 11.172 5.5 11.1847ZM5.5 2.5C4.61107 2.5 3.87143 3.18316 3.87143 4.05C3.87143 4.91684 4.61107 5.6 5.5 5.6C6.38893 5.6 7.12857 4.91684 7.12857 4.05C7.12857 3.18316 6.38893 2.5 5.5 2.5ZM10.3 13.8H0.7V12.35H10.3V13.8Z" fill="#FCBDBD" stroke="#2B2A29" stroke-width="0.4"/>
</svg>
