<svg width="70" height="70" viewBox="0 0 70 70" fill="none" xmlns="http://www.w3.org/2000/svg">
<g id="Group 8078">
<g id="Group 7307">
<rect id="Rectangle 399" x="0.35" y="0.35" width="69.3" height="69.3" rx="34.65" fill="#B5DEF5" stroke="#2B2A29" stroke-width="0.7"/>
<rect id="Rectangle 385" x="0.35" y="0.35" width="69.3" height="69.3" rx="34.65" stroke="#2B2A29" stroke-width="0.7"/>
<g id="Mask group">
<mask id="mask0_1_1925" style="mask-type:alpha" maskUnits="userSpaceOnUse" x="0" y="0" width="70" height="70">
<rect id="Rectangle 338" x="0.35" y="0.35" width="69.3" height="69.3" rx="34.65" fill="#B5DEF5" stroke="#2B2A29" stroke-width="0.7"/>
</mask>
<g mask="url(#mask0_1_1925)">
<path id="Vector" d="M5.24872 74.2355V64.2168C5.24872 64.2168 25.6275 56.3418 27.535 51.538C27.6225 50.7969 27.6225 50.048 27.535 49.3068C27.535 49.3068 23.0637 45.413 23.16 41.2655C23.16 41.2655 21.2612 40.6093 21.095 37.6255C20.9287 34.6418 22.3287 34.458 22.3287 34.458C22.3287 34.458 21.1562 24.5355 24.0787 20.6768C27.0012 16.818 30.4575 15.873 35.6025 15.873C40.7475 15.873 42.725 17.028 45.2887 20.178C47.8525 23.328 47.6075 29.6193 47.45 34.0993C47.45 34.0993 48.605 34.6768 48.605 37.0743C48.605 39.4718 47.3625 40.2243 46.6187 40.968C46.0384 44.1367 44.5133 47.0557 42.2437 49.3418V51.4943C42.2437 51.4943 47.8525 58.6168 63.9437 64.1643V74.988L5.24872 74.2355Z" fill="white" stroke="#2B2A29" stroke-width="0.7" stroke-linecap="round" stroke-linejoin="round"/>
<path id="Vector_2" d="M63.3956 64.3698V74.441L5.57562 73.706V64.4135L6.17937 64.1773C6.73937 63.9498 7.54437 63.626 8.52437 63.2148C10.4669 62.401 13.0831 61.2635 15.7519 59.9685C18.3686 58.739 20.9079 57.351 23.3556 55.8123L23.8981 55.4535C27.1359 58.0334 31.234 59.2847 35.3606 58.9535C39.0196 58.6827 42.5116 57.3134 45.3794 55.0248C45.7731 55.3398 46.2544 55.6635 46.6744 56.0048C51.8162 59.5838 57.4481 62.4012 63.3956 64.3698Z" fill="#C5CEFB"/>
<path id="Vector_3" d="M46.7247 25.9903L44.2397 22.4903C44.0516 22.2629 43.8201 22.0752 43.5587 21.9382C43.2973 21.8012 43.0112 21.7176 42.7172 21.6924C42.4232 21.6671 42.127 21.7007 41.8461 21.7911C41.5652 21.8815 41.3051 22.027 41.081 22.219C39.646 23.4703 37.371 24.984 34.7985 24.984C32.5156 24.8398 30.3523 23.9127 28.6735 22.359C28.4389 22.1587 28.1651 22.0093 27.8697 21.9205C27.5742 21.8318 27.2635 21.8055 26.9573 21.8433C26.6511 21.8812 26.3562 21.9824 26.0912 22.1405C25.8263 22.2985 25.5972 22.5101 25.4185 22.7615L22.4785 26.3753C22.5438 25.5936 22.6549 24.8165 22.811 24.0478C23.014 22.7433 23.4976 21.4984 24.2285 20.399C25.4121 18.7305 27.0574 17.444 28.9622 16.6978C31.0312 15.9979 33.211 15.6836 35.3935 15.7703C37.3142 15.6634 39.2349 15.98 41.0197 16.6978C42.4918 17.4688 43.7648 18.5711 44.7385 19.9178C45.911 21.3615 46.4797 23.549 46.7247 25.9903Z" fill="#F2D1BF" stroke="#2B2A29" stroke-width="0.7" stroke-miterlimit="10" stroke-linecap="round"/>
<path id="Vector_4" d="M30.3547 44.4336C30.3547 44.4336 34.8697 48.9486 39.3847 44.4336" stroke="#2B2A29" stroke-width="0.7" stroke-miterlimit="10" stroke-linecap="round"/>
<path id="Vector_5" d="M31.9088 34.1432C31.9088 34.1432 30.5001 35.8932 28.7588 35.8932C27.0176 35.8932 25.6088 34.1432 25.6088 34.1432C25.6088 34.1432 27.0176 32.3932 28.7588 32.3932C30.5001 32.3932 31.9088 34.1432 31.9088 34.1432Z" stroke="#2B2A29" stroke-width="0.7" stroke-miterlimit="10" stroke-linecap="round"/>
<path id="Vector_6" d="M44.1601 34.1432C44.1601 34.1432 42.7514 35.8932 41.0101 35.8932C39.2689 35.8932 37.8601 34.1432 37.8601 34.1432" stroke="#2B2A29" stroke-width="0.7" stroke-miterlimit="10" stroke-linecap="round"/>
<path id="Vector_7" d="M25.0524 31.6281C25.6948 30.9624 26.5016 30.4783 27.3913 30.2248C28.281 29.9712 29.2218 29.9573 30.1186 30.1843C31.0588 30.344 31.9267 30.7902 32.6036 31.4618C33.07 32.0755 33.3495 32.8107 33.4086 33.5793C33.5501 35.3167 33.4322 37.0654 33.0586 38.7681C32.9361 39.4681 32.8049 40.1593 32.7174 40.8681C32.6602 41.1057 32.6793 41.3553 32.772 41.5814C32.8646 41.8076 33.0262 41.9989 33.2336 42.1281C33.9331 42.5053 34.7303 42.6621 35.5206 42.5777C36.3108 42.4934 37.057 42.1719 37.6611 41.6556C38.0899 41.2531 37.4424 40.5968 37.0136 41.0081C36.408 41.4962 35.6356 41.7286 34.8611 41.6556C34.4411 41.6556 33.6536 41.5681 33.6099 41.0781C33.6164 40.7463 33.6664 40.4168 33.7586 40.0981C33.8199 39.7043 33.8899 39.3106 33.9599 38.9256C34.0999 38.0506 34.2224 37.2456 34.3099 36.4056C34.5981 34.8014 34.4408 33.1489 33.8549 31.6281C33.1199 30.1143 31.3874 29.3881 29.8036 29.1606C28.8324 29.0004 27.8368 29.0801 26.9035 29.3927C25.9701 29.7054 25.1274 30.2415 24.4486 30.9543C24.0374 31.3831 24.6849 32.0306 25.0961 31.6018L25.0524 31.6281Z" fill="#2B2A29"/>
<path id="Vector_8" d="M28.7625 35.0228C29.2458 35.0228 29.6375 34.6311 29.6375 34.1478C29.6375 33.6646 29.2458 33.2728 28.7625 33.2728C28.2793 33.2728 27.8875 33.6646 27.8875 34.1478C27.8875 34.6311 28.2793 35.0228 28.7625 35.0228Z" stroke="#2B2A29" stroke-width="0.7" stroke-miterlimit="10" stroke-linecap="round"/>
<path id="Vector_9" d="M26.9855 48.7904C26.9855 48.7904 30.853 51.9492 32.0867 52.2204C33.3205 52.4917 36.3655 52.7454 37.8092 52.2204C39.5592 51.5817 42.5517 49.0179 42.5517 49.0179" stroke="#2B2A29" stroke-width="0.7" stroke-miterlimit="10" stroke-linecap="round"/>
<path id="Vector_10" d="M23.9682 55.3087C24.2695 55.6375 24.6071 55.931 24.9745 56.1837V56.1837C26.433 57.2761 28.1105 58.0402 29.892 58.4238H29.9444C31.7155 58.8175 33.5307 58.9764 35.3432 58.8962C39.7882 58.7475 42.5532 57.3387 44.2419 55.79C44.6862 55.3922 45.0879 54.9494 45.4407 54.4688" stroke="#2B2A29" stroke-width="0.7" stroke-miterlimit="10" stroke-linecap="round"/>
<path id="Vector_11" d="M14.43 38.2812C13.9995 38.2801 13.5731 38.3639 13.175 38.5278C12.777 38.6918 12.4152 38.9326 12.1104 39.2366C11.8056 39.5406 11.5637 39.9018 11.3987 40.2994C11.2337 40.697 11.1488 41.1233 11.1488 41.5537C11.1499 41.1237 11.0661 40.6976 10.902 40.3001C10.738 39.9025 10.497 39.5413 10.1929 39.2372C9.88875 38.9331 9.52754 38.6921 9.12998 38.528C8.73242 38.364 8.30636 38.2801 7.87628 38.2812C8.30677 38.2813 8.73303 38.1963 9.13064 38.0313C9.52825 37.8663 9.88939 37.6245 10.1934 37.3197C10.4974 37.0149 10.7383 36.6531 10.9022 36.255C11.0661 35.857 11.1499 35.4305 11.1488 35C11.1488 35.4309 11.2337 35.8576 11.3986 36.2557C11.5634 36.6538 11.8051 37.0155 12.1098 37.3202C12.4145 37.6249 12.7763 37.8666 13.1744 38.0315C13.5725 38.1964 13.9991 38.2812 14.43 38.2812Z" fill="white" stroke="#2B2A29" stroke-width="0.7" stroke-linecap="round" stroke-linejoin="round"/>
<path id="Vector_12" d="M35.4281 10.2725C34.9977 10.2725 34.5714 10.3574 34.1738 10.5224C33.7762 10.6874 33.415 10.9293 33.111 11.2341C32.807 11.5389 32.5662 11.9007 32.4022 12.2987C32.2383 12.6968 32.1545 13.1233 32.1556 13.5537C32.1556 12.6835 31.8099 11.8489 31.1946 11.2336C30.5792 10.6182 29.7446 10.2725 28.8744 10.2725C29.3049 10.2737 29.7314 10.1899 30.1294 10.0259C30.5275 9.86197 30.8893 9.6211 31.1941 9.31711C31.4989 9.01311 31.7407 8.65197 31.9057 8.25436C32.0707 7.85675 32.1556 7.43049 32.1556 7C32.1545 7.43007 32.2383 7.85614 32.4024 8.2537C32.5664 8.65126 32.8074 9.01247 33.1116 9.31658C33.4157 9.62069 33.7769 9.8617 34.1744 10.0257C34.572 10.1898 34.9981 10.2737 35.4281 10.2725Z" fill="white" stroke="#2B2A29" stroke-width="0.7" stroke-linecap="round" stroke-linejoin="round"/>
<path id="Vector_13" d="M59.0537 47.0225C58.6233 47.0225 58.197 47.1074 57.7994 47.2724C57.4018 47.4374 57.0406 47.6793 56.7366 47.9841C56.4326 48.2889 56.1918 48.6507 56.0278 49.0487C55.8639 49.4468 55.7801 49.8733 55.7812 50.3037C55.7812 49.4335 55.4355 48.5989 54.8202 47.9836C54.2048 47.3682 53.3702 47.0225 52.5 47.0225C52.9305 47.0236 53.357 46.9399 53.755 46.7759C54.1531 46.612 54.5149 46.3711 54.8197 46.0671C55.1245 45.7631 55.3663 45.402 55.5313 45.0044C55.6963 44.6067 55.7813 44.1805 55.7812 43.75C55.7801 44.1801 55.864 44.6061 56.028 45.0037C56.1921 45.4013 56.4331 45.7625 56.7372 46.0666C57.0413 46.3707 57.4025 46.6117 57.8001 46.7757C58.1976 46.9398 58.6237 47.0237 59.0537 47.0225Z" fill="white" stroke="#2B2A29" stroke-width="0.7" stroke-linecap="round" stroke-linejoin="round"/>
</g>
</g>
<rect id="Rectangle 398" x="0.35" y="0.35" width="69.3" height="69.3" rx="34.65" stroke="#2B2A29" stroke-width="0.7"/>
</g>
</g>
</svg>
