<svg width="8" height="11" viewBox="0 0 8 11" fill="none" xmlns="http://www.w3.org/2000/svg">
<path id="Vector" d="M4 8.76428C3.99346 8.75742 3.9867 8.75029 3.9797 8.74291C3.88702 8.64511 3.7543 8.50243 3.5949 8.32367C3.27593 7.96595 2.85099 7.4647 2.42647 6.89009C2.00154 6.31495 1.57955 5.6697 1.26442 5.02381C0.948089 4.37545 0.746429 3.74046 0.746429 3.18214C0.746429 1.53272 2.18984 0.175 4 0.175C5.81016 0.175 7.25357 1.53272 7.25357 3.18214C7.25357 3.74046 7.05191 4.37545 6.73558 5.02381C6.42045 5.6697 5.99846 6.31495 5.57353 6.89009C5.14901 7.4647 4.72407 7.96595 4.4051 8.32367C4.2457 8.50243 4.11298 8.64511 4.0203 8.74291C4.0133 8.75029 4.00653 8.75742 4 8.76428ZM4 1.94643C3.28444 1.94643 2.68214 2.48739 2.68214 3.18214C2.68214 3.8769 3.28444 4.41786 4 4.41786C4.71556 4.41786 5.31786 3.8769 5.31786 3.18214C5.31786 2.48739 4.71556 1.94643 4 1.94643ZM7.825 10.825H0.175V9.72143H7.825V10.825Z" fill="#FCBDBD" stroke="#2B2A29" stroke-width="0.35"/>
</svg>
