<svg width="15" height="15" viewBox="0 0 15 15" fill="none" xmlns="http://www.w3.org/2000/svg">
<g id="&#208;&#161;&#208;&#187;&#208;&#190;&#208;&#185; 13">
<path id="Vector" d="M14.1994 3.33967V13.6782C14.1996 13.7617 14.1833 13.8444 14.1515 13.9216C14.1198 13.9988 14.073 14.069 14.0141 14.1281C13.9551 14.1872 13.8851 14.2341 13.808 14.2661C13.7309 14.2981 13.6482 14.3145 13.5648 14.3145H1.6363C1.46754 14.3145 1.3057 14.2475 1.18637 14.1282C1.06704 14.0088 1 13.847 1 13.6782V3.33967C1 3.17091 1.06704 3.00907 1.18637 2.88974C1.3057 2.77041 1.46754 2.70337 1.6363 2.70337H13.5648C13.7277 2.7032 13.8845 2.76591 14.0024 2.87843C14.1203 2.99095 14.1902 3.14462 14.1977 3.30743C14.1991 3.31811 14.1996 3.32889 14.1994 3.33967Z" fill="#BCF4AB" stroke="#2B2A29" stroke-width="0.4" stroke-linecap="round" stroke-linejoin="round"/>
<path id="Vector_2" d="M10.4343 2.55257C10.4343 3.40945 8.88172 5.85114 8.88172 5.85114C8.88172 5.85114 7.33594 3.40945 7.33594 2.55257C7.33594 2.1408 7.49951 1.7459 7.79067 1.45474C8.08184 1.16357 8.47674 1 8.8885 1C9.30027 1 9.69517 1.16357 9.98633 1.45474C10.2775 1.7459 10.4411 2.1408 10.4411 2.55257H10.4343Z" fill="#FCBDBD" stroke="#2B2A29" stroke-width="0.4" stroke-linecap="round" stroke-linejoin="round"/>
<path id="Vector_3" d="M8.88845 3.4683C9.37481 3.4683 9.76909 3.07403 9.76909 2.58767C9.76909 2.10131 9.37481 1.70703 8.88845 1.70703C8.40209 1.70703 8.00781 2.10131 8.00781 2.58767C8.00781 3.07403 8.40209 3.4683 8.88845 3.4683Z" fill="white" stroke="#2B2A29" stroke-width="0.4" stroke-linecap="round" stroke-linejoin="round"/>
<path id="Vector_4" d="M6.23703 10.2362C6.23703 11.0947 4.68446 13.5296 4.68446 13.5296C4.68446 13.5296 3.14038 11.0947 3.14038 10.2362C3.14038 9.82439 3.30395 9.42949 3.59512 9.13833C3.88628 8.84717 4.28118 8.68359 4.69295 8.68359C5.10471 8.68359 5.49962 8.84717 5.79078 9.13833C6.08194 9.42949 6.24551 9.82439 6.24551 10.2362H6.23703Z" fill="#FCBDBD" stroke="#2B2A29" stroke-width="0.4" stroke-linecap="round" stroke-linejoin="round"/>
<path id="Vector_5" d="M4.68142 11.1558C5.16778 11.1558 5.56205 10.7615 5.56205 10.2752C5.56205 9.78881 5.16778 9.39453 4.68142 9.39453C4.19506 9.39453 3.80078 9.78881 3.80078 10.2752C3.80078 10.7615 4.19506 11.1558 4.68142 11.1558Z" fill="white" stroke="#2B2A29" stroke-width="0.4" stroke-linecap="round" stroke-linejoin="round"/>
<path id="Vector_6" d="M14.1994 3.33967C14.2002 3.32894 14.2002 3.31816 14.1994 3.30743L9.15819 8.3486L3.51295 2.70337H1.6363C1.52845 2.70492 1.42278 2.73393 1.32926 2.78767C1.23574 2.84141 1.15746 2.91809 1.10181 3.01049L3.61306 5.51835L1 8.13141V9.96735L4.52933 6.43462L12.4092 14.3145H13.5648C13.6482 14.3145 13.7309 14.2981 13.808 14.2661C13.8851 14.2341 13.9551 14.1872 14.0141 14.1281C14.073 14.069 14.1198 13.9988 14.1515 13.9216C14.1833 13.8444 14.1996 13.7617 14.1994 13.6782V13.3898L10.0745 9.26487L14.1994 5.13827V3.33967Z" fill="#F5E9AA" stroke="#2B2A29" stroke-width="0.4" stroke-linecap="round" stroke-linejoin="round"/>
</g>
</svg>
