<svg width="32" height="9" viewBox="0 0 32 9" fill="none" xmlns="http://www.w3.org/2000/svg">
<g id="Group 8110">
<path id="primary-upstroke (Stroke)" fill-rule="evenodd" clip-rule="evenodd" d="M30.9424 4.5C30.9424 6.433 29.3754 8 27.4424 8L27.2559 8C25.3229 8 23.7559 6.433 23.7559 4.5C23.7559 2.567 25.3229 1 27.2559 1L27.4424 1C29.3754 1 30.9424 2.567 30.9424 4.5Z" fill="#F5E9AA" stroke="#2B2A29" stroke-width="0.7" stroke-linecap="round" stroke-linejoin="round"/>
<path id="primary-upstroke (Stroke)_2" fill-rule="evenodd" clip-rule="evenodd" d="M19.5635 4.5C19.5635 6.433 17.9965 8 16.0635 8L15.8769 8C13.944 8 12.3769 6.433 12.3769 4.5C12.3769 2.567 13.944 1 15.8769 1L16.0635 1C17.9965 1 19.5635 2.567 19.5635 4.5Z" fill="#F5E9AA" stroke="#2B2A29" stroke-width="0.7" stroke-linecap="round" stroke-linejoin="round"/>
<path id="primary-upstroke (Stroke)_3" fill-rule="evenodd" clip-rule="evenodd" d="M8.18652 4.5C8.18652 6.433 6.61952 8 4.68652 8L4.5 8C2.567 8 0.999998 6.433 0.999998 4.5C0.999998 2.567 2.567 1 4.5 1L4.68652 1C6.61952 1 8.18652 2.567 8.18652 4.5Z" fill="#F5E9AA" stroke="#2B2A29" stroke-width="0.7" stroke-linecap="round" stroke-linejoin="round"/>
</g>
</svg>
