<svg width="15" height="11" viewBox="0 0 15 11" fill="none" xmlns="http://www.w3.org/2000/svg">
<g id="Group 8005">
<g id="&#208;&#161;&#208;&#187;&#208;&#190;&#208;&#185; 2">
<path id="Vector" d="M10.0907 4.93011C10.0907 5.35666 9.9642 5.77363 9.72722 6.12829C9.49025 6.48296 9.15342 6.75938 8.75934 6.92262C8.36526 7.08585 7.93162 7.12856 7.51327 7.04534C7.09492 6.96213 6.71064 6.75672 6.40902 6.45511C6.1074 6.15349 5.902 5.76921 5.81878 5.35086C5.73557 4.9325 5.77828 4.49887 5.94151 4.10479C6.10474 3.71071 6.38117 3.37388 6.73583 3.1369C7.0905 2.89992 7.50747 2.77344 7.93402 2.77344C8.2173 2.77322 8.49784 2.82885 8.7596 2.93716C9.02136 3.04546 9.25919 3.20431 9.4595 3.40462C9.65981 3.60493 9.81866 3.84277 9.92697 4.10453C10.0353 4.36629 10.0909 4.64683 10.0907 4.93011V4.93011Z" stroke="#B2E8F9" stroke-width="0.35" stroke-miterlimit="10"/>
<path id="Vector_2" d="M13.3632 1H2.54818C2.43363 1.00014 2.32035 1.02389 2.21539 1.06977C2.11044 1.11565 2.01607 1.18268 1.93818 1.26667C1.9253 1.27716 1.91407 1.28952 1.90484 1.30333C1.78194 1.45261 1.71477 1.63998 1.71484 1.83334V8.24335C1.71484 8.46437 1.80264 8.67633 1.95892 8.83261C2.1152 8.98889 2.32716 9.07669 2.54818 9.07669H13.3632C13.5838 9.07664 13.7954 8.98914 13.9515 8.83335C13.9635 8.82194 13.9746 8.80968 13.9849 8.79669C14.1213 8.64532 14.1967 8.44876 14.1965 8.24502V1.83334C14.1965 1.61232 14.1087 1.40036 13.9525 1.24408C13.7962 1.0878 13.5842 1 13.3632 1ZM13.1965 6.57668C13.0012 6.57646 12.8077 6.61475 12.6271 6.68937C12.4465 6.76398 12.2825 6.87345 12.1442 7.01153C12.006 7.1496 11.8963 7.31356 11.8215 7.49404C11.7467 7.67452 11.7082 7.86798 11.7082 8.06335C11.7082 8.10002 11.7082 8.13502 11.7082 8.17002H2.65651V3.54334C2.85189 3.54356 3.04539 3.50527 3.22595 3.43065C3.40651 3.35604 3.5706 3.24657 3.70883 3.10849C3.84705 2.97042 3.95671 2.80646 4.03152 2.62598C4.10634 2.4455 4.14485 2.25204 4.14485 2.05667C4.14485 2.005 4.14485 1.955 4.14485 1.90667H11.7249C11.7223 1.95664 11.7223 2.0067 11.7249 2.05667C11.7249 2.25204 11.7634 2.4455 11.8382 2.62598C11.913 2.80646 12.0227 2.97042 12.1609 3.10849C12.2991 3.24657 12.4632 3.35604 12.6438 3.43065C12.8243 3.50527 13.0178 3.54356 13.2132 3.54334H13.2615V6.57001L13.1965 6.57668Z" fill="#BCF4AB" stroke="#2B2A29" stroke-width="0.35" stroke-linecap="round" stroke-linejoin="round"/>
<path id="Vector_3" d="M10.0907 4.93011C10.0907 5.35666 9.9642 5.77363 9.72722 6.12829C9.49025 6.48296 9.15342 6.75938 8.75934 6.92262C8.36526 7.08585 7.93162 7.12856 7.51327 7.04534C7.09492 6.96213 6.71064 6.75672 6.40902 6.45511C6.1074 6.15349 5.902 5.76921 5.81878 5.35086C5.73557 4.9325 5.77828 4.49887 5.94151 4.10479C6.10474 3.71071 6.38117 3.37388 6.73583 3.1369C7.0905 2.89992 7.50747 2.77344 7.93402 2.77344C8.2173 2.77322 8.49784 2.82885 8.7596 2.93716C9.02136 3.04546 9.25919 3.20431 9.4595 3.40462C9.65981 3.60493 9.81866 3.84277 9.92697 4.10453C10.0353 4.36629 10.0909 4.64683 10.0907 4.93011V4.93011Z" stroke="#B2E8F9" stroke-width="0.35" stroke-miterlimit="10"/>
<path id="Vector_4" d="M13.2085 3.54292C13.0131 3.54314 12.8196 3.50485 12.6391 3.43023C12.4585 3.35562 12.2944 3.24615 12.1562 3.10807C12.018 2.97 11.9083 2.80604 11.8335 2.62556C11.7587 2.44508 11.7202 2.25162 11.7202 2.05625C11.7176 2.00628 11.7176 1.95622 11.7202 1.90625H4.14849C4.14849 1.95458 4.14849 2.00458 4.14849 2.05625C4.14849 2.25162 4.10998 2.44508 4.03517 2.62556C3.96035 2.80604 3.8507 2.97 3.71247 3.10807C3.57424 3.24615 3.41016 3.35562 3.22959 3.43023C3.04903 3.50485 2.85553 3.54314 2.66016 3.54292V8.16627H11.7252C11.7252 8.13127 11.7252 8.09627 11.7252 8.0596C11.7252 7.86423 11.7637 7.67077 11.8385 7.49029C11.9133 7.30981 12.023 7.14585 12.1612 7.00777C12.2994 6.8697 12.4635 6.76023 12.6441 6.68562C12.8246 6.611 13.0181 6.57271 13.2135 6.57293H13.2619V3.54125L13.2085 3.54292ZM7.93684 7.08293C7.51022 7.08293 7.09318 6.9564 6.73848 6.71935C6.38378 6.4823 6.10736 6.14537 5.94417 5.7512C5.78099 5.35702 5.73838 4.9233 5.82173 4.5049C5.90508 4.0865 6.11065 3.70222 6.41243 3.40067C6.71421 3.09912 7.09865 2.89385 7.51711 2.81082C7.93558 2.7278 8.36926 2.77074 8.76332 2.93423C9.15737 3.09772 9.49408 3.37441 9.73085 3.72929C9.96763 4.08417 10.0938 4.5013 10.0935 4.92792C10.0935 5.21106 10.0377 5.49143 9.92931 5.75299C9.82091 6.01456 9.66202 6.2522 9.46173 6.45233C9.26145 6.65247 9.02368 6.81117 8.76203 6.91937C8.50038 7.02757 8.21998 7.08315 7.93684 7.08293Z" fill="#B2E8F9" stroke="#2B2A29" stroke-width="0.35" stroke-miterlimit="10"/>
<path id="Vector_5" d="M10.0907 4.93011C10.0907 5.35666 9.9642 5.77363 9.72722 6.12829C9.49025 6.48296 9.15342 6.75938 8.75934 6.92262C8.36526 7.08585 7.93162 7.12856 7.51327 7.04534C7.09492 6.96213 6.71064 6.75672 6.40902 6.45511C6.1074 6.15349 5.902 5.76921 5.81878 5.35086C5.73557 4.9325 5.77828 4.49887 5.94151 4.10479C6.10474 3.71071 6.38117 3.37388 6.73583 3.1369C7.0905 2.89992 7.50747 2.77344 7.93402 2.77344C8.2173 2.77322 8.49784 2.82885 8.7596 2.93716C9.02136 3.04546 9.25919 3.20431 9.4595 3.40462C9.65981 3.60493 9.81866 3.84277 9.92697 4.10453C10.0353 4.36629 10.0909 4.64683 10.0907 4.93011Z" fill="#BCF4AB" stroke="#2B2A29" stroke-width="0.35" stroke-linecap="round" stroke-linejoin="round"/>
<path id="Vector_6" d="M7.49335 7.55303C7.49302 8.19502 7.30237 8.8225 6.94549 9.35616C6.58862 9.88982 6.08154 10.3057 5.48836 10.5512C4.89517 10.7967 4.24251 10.8609 3.61287 10.7356C2.98324 10.6102 2.40489 10.3011 1.95093 9.84711C1.49698 9.39315 1.18779 8.8148 1.06247 8.18517C0.93714 7.55553 1.00129 6.90287 1.24682 6.30968C1.49235 5.7165 1.90822 5.20942 2.44188 4.85255C2.97554 4.49567 3.60302 4.30502 4.24501 4.30469C4.67165 4.30447 5.09415 4.38834 5.48836 4.55151C5.88256 4.71467 6.24074 4.95394 6.54242 5.25562C6.8441 5.5573 7.08337 5.91548 7.24653 6.30968C7.4097 6.70389 7.49357 7.12639 7.49335 7.55303Z" fill="#F5E9AA" stroke="#2B2A29" stroke-width="0.35" stroke-linecap="round" stroke-linejoin="round"/>
<path id="Vector_7" d="M8.9221 5.69834C8.76757 5.87426 8.56368 5.99961 8.33694 6.05809C8.11021 6.11657 7.87113 6.10547 7.65079 6.02623C7.43045 5.947 7.23905 5.8033 7.10149 5.61382C6.96392 5.42434 6.88655 5.19785 6.87944 4.9638C6.87234 4.72976 6.93582 4.49899 7.06164 4.30151C7.18745 4.10403 7.36978 3.94898 7.5849 3.85652C7.80003 3.76406 8.038 3.73848 8.26786 3.78309C8.49772 3.8277 8.70884 3.94045 8.87377 4.10667" stroke="#2B2A29" stroke-width="0.35" stroke-linecap="round" stroke-linejoin="round"/>
<path id="Vector_8" d="M6.51172 4.73047H8.11506" stroke="#2B2A29" stroke-width="0.35" stroke-linecap="round" stroke-linejoin="round"/>
<path id="Vector_9" d="M6.51172 5.14062H8.11506" stroke="#2B2A29" stroke-width="0.35" stroke-linecap="round" stroke-linejoin="round"/>
<path id="Vector_10" d="M5.3549 8.46339C5.17171 8.66872 4.93106 8.81429 4.66415 8.88122C4.39724 8.94814 4.11638 8.93335 3.85798 8.83875C3.59958 8.74414 3.37556 8.5741 3.21496 8.35065C3.05436 8.12721 2.96458 7.86067 2.95727 7.5856C2.94996 7.31052 3.02546 7.03959 3.17396 6.80794C3.32247 6.57628 3.53715 6.39458 3.79016 6.28639C4.04317 6.1782 4.32285 6.1485 4.59294 6.20116C4.86302 6.25382 5.11106 6.3864 5.3049 6.58172" stroke="#2B2A29" stroke-width="0.35" stroke-linecap="round" stroke-linejoin="round"/>
<path id="Vector_11" d="M2.50391 7.32031H4.39891" stroke="#2B2A29" stroke-width="0.35" stroke-linecap="round" stroke-linejoin="round"/>
<path id="Vector_12" d="M2.50391 7.80469H4.39891" stroke="#2B2A29" stroke-width="0.35" stroke-linecap="round" stroke-linejoin="round"/>
<path id="Vector_13" d="M6.60397 7.55589C6.60397 8.022 6.46575 8.47764 6.2068 8.86519C5.94785 9.25274 5.57978 9.5548 5.14916 9.73317C4.71853 9.91154 4.24468 9.95821 3.78753 9.86728C3.33038 9.77635 2.91047 9.5519 2.58088 9.22231C2.25129 8.89272 2.02684 8.47281 1.93591 8.01566C1.84498 7.55851 1.89165 7.08466 2.07002 6.65403C2.24839 6.22341 2.55045 5.85534 2.938 5.59639C3.32555 5.33743 3.78119 5.19922 4.2473 5.19922C4.87233 5.19922 5.47176 5.44751 5.91372 5.88947C6.35568 6.33143 6.60397 6.93086 6.60397 7.55589V7.55589Z" stroke="#2B2A29" stroke-width="0.35" stroke-linecap="round" stroke-linejoin="round"/>
</g>
</g>
</svg>
