<svg width="23" height="22" viewBox="0 0 23 22" fill="none" xmlns="http://www.w3.org/2000/svg">
<g id="Group 10247">
<g id="&#208;&#161;&#208;&#187;&#208;&#190;&#208;&#185; 2">
<path id="Vector" d="M15.4373 16.9205C15.4373 17.1055 15.4373 17.2954 15.4373 17.4754C13.8925 18.5891 12.036 19.1875 10.1316 19.1857C8.22715 19.1839 6.37175 18.582 4.82901 17.4654C4.82901 17.2854 4.82901 17.0955 4.82901 16.9105C4.81386 15.9714 5.03479 15.0435 5.47152 14.2119C5.90826 13.3804 6.54682 12.6718 7.32861 12.1512C7.67121 12.548 8.09524 12.8662 8.57187 13.0844C9.04849 13.3025 9.56651 13.4154 10.0907 13.4154C10.6149 13.4154 11.1329 13.3025 11.6095 13.0844C12.0861 12.8662 12.5102 12.548 12.8527 12.1512C13.6511 12.6635 14.3067 13.3694 14.7587 14.2033C15.2106 15.0373 15.4441 15.972 15.4373 16.9205Z" fill="#BCF4AB" stroke="#2B2A29" stroke-width="0.5" stroke-linecap="round" stroke-linejoin="round"/>
<path id="Vector_2" d="M19.2021 10.0964C19.2022 11.5375 18.8584 12.9579 18.1994 14.2395C17.5403 15.5211 16.585 16.6269 15.4127 17.4652C15.4127 17.2853 15.4127 17.0953 15.4127 16.9103C15.4216 15.9637 15.1912 15.0301 14.7428 14.1964C14.2945 13.3626 13.6428 12.6556 12.8481 12.1411C12.5056 12.5336 12.083 12.8482 11.6087 13.0638C11.1345 13.2793 10.6195 13.3909 10.0986 13.3909C9.57762 13.3909 9.0627 13.2793 8.58843 13.0638C8.11417 12.8482 7.69156 12.5336 7.34901 12.1411C6.55281 12.6544 5.89959 13.3609 5.45026 14.1949C5.00093 15.0289 4.77014 15.963 4.77941 16.9103C4.77941 17.0953 4.77941 17.2853 4.77941 17.4652C3.51595 16.5559 2.50722 15.3372 1.84993 13.9261C1.19264 12.515 0.908804 10.9588 1.02564 9.40646C1.14247 7.85417 1.65605 6.35791 2.51715 5.06108C3.37826 3.76425 4.55802 2.71034 5.94336 2.00035C7.3287 1.29036 8.87319 0.948101 10.4288 1.00637C11.9844 1.06464 13.4989 1.52149 14.8273 2.33312C16.1556 3.14476 17.2532 4.28398 18.0149 5.64159C18.7766 6.99921 19.1768 8.5297 19.1772 10.0864L19.2021 10.0964Z" fill="#B2E8F9" stroke="#2B2A29" stroke-width="0.5" stroke-linecap="round" stroke-linejoin="round"/>
<path id="Vector_3" d="M13.7733 9.74812C13.7795 10.4992 13.5545 11.234 13.1287 11.8528C12.703 12.4716 12.0971 12.9444 11.3934 13.207C10.6896 13.4696 9.92215 13.5093 9.19509 13.3207C8.46803 13.1321 7.81662 12.7243 7.3293 12.1527C6.74155 11.4898 6.41777 10.6341 6.41944 9.74812C6.45449 8.79902 6.85617 7.90048 7.54002 7.24142C8.22387 6.58235 9.13662 6.21411 10.0864 6.21411C11.0361 6.21411 11.9489 6.58235 12.6327 7.24142C13.3166 7.90048 13.7182 8.79902 13.7533 9.74812H13.7733Z" fill="#F5E9AA" stroke="#2B2A29" stroke-width="0.5" stroke-linecap="round" stroke-linejoin="round"/>
</g>
<g id="&#208;&#161;&#208;&#187;&#208;&#190;&#208;&#185; 6">
<path id="Vector_4" d="M22.0112 14.2308L19.9025 12.1221L17.5746 14.4499L15.2435 12.1221L13.1348 14.2308L15.4659 16.5619L13.1348 18.8898L15.2435 20.9985L17.5746 18.6674L19.9025 20.9985L22.0112 18.8898L19.6834 16.5619L22.0112 14.2308Z" fill="#FCBDBD" stroke="#2B2A29" stroke-width="0.5" stroke-linecap="round" stroke-linejoin="round"/>
</g>
</g>
</svg>
