<svg width="11" height="12" viewBox="0 0 11 12" fill="none" xmlns="http://www.w3.org/2000/svg">
<g id="&#208;&#161;&#208;&#187;&#208;&#190;&#208;&#185; 3">
<path id="Vector" d="M8.26384 6.30946V9.30253C8.26384 9.52773 8.17438 9.7437 8.01514 9.90293C7.8559 10.0622 7.63993 10.1516 7.41474 10.1516H1.86164L0.757812 11.0007V5.68113C0.757812 5.45593 0.847271 5.23996 1.00651 5.08073C1.16574 4.92149 1.38172 4.83203 1.60691 4.83203H5.16463" fill="#BDF1F5"/>
<path id="Vector_2" d="M6.43941 3.10156H5.14453V6.30691H6.43941V3.10156Z" fill="#FCBDBD"/>
<path id="Vector_3" d="M6.4375 5.62103C6.4375 5.62103 6.86205 6.28332 7.20593 6.3088C7.54982 6.33427 9.40085 6.34701 9.61313 6.3088C9.8254 6.27059 10.2415 6.15171 10.3051 5.40026V3.93557C10.2683 3.74065 10.1799 3.55913 10.0493 3.40983C9.91867 3.26053 9.75048 3.14889 9.56218 3.08647C9.13763 2.96335 8.84894 3.21808 8.91262 2.41993C8.96357 1.79584 8.72582 1.18874 8.26306 1.03166C7.8003 0.874573 7.77907 1.32884 7.80879 1.80433C7.88667 2.23834 7.81953 2.68592 7.61775 3.07798C7.38 3.41337 6.4375 3.41337 6.4375 3.41337V5.62103Z" fill="#F2D1BF"/>
<path id="Vector_4" d="M1.85156 6.58594H4.09743" stroke="#2B2A29" stroke-width="0.27" stroke-linecap="round" stroke-linejoin="round"/>
<path id="Vector_5" d="M1.85156 7.79688H7.30702" stroke="#2B2A29" stroke-width="0.27" stroke-linecap="round" stroke-linejoin="round"/>
<path id="Vector_6" d="M1.85156 8.89844H7.30702" stroke="#2B2A29" stroke-width="0.27" stroke-linecap="round" stroke-linejoin="round"/>
<path id="Vector_7" d="M8.26384 6.38588V9.30253C8.26384 9.52773 8.17438 9.7437 8.01514 9.90293C7.8559 10.0622 7.63993 10.1516 7.41474 10.1516H1.86164L0.757812 11.0007V5.68113C0.757812 5.45593 0.847271 5.23996 1.00651 5.08073C1.16574 4.92149 1.38172 4.83203 1.60691 4.83203H5.16463" stroke="#2B2A29" stroke-width="0.27" stroke-linecap="round" stroke-linejoin="round"/>
<path id="Vector_8" d="M6.43941 3.10156H5.14453V6.30691H6.43941V3.10156Z" stroke="#2B2A29" stroke-width="0.27" stroke-linecap="round" stroke-linejoin="round"/>
<path id="Vector_9" d="M6.4375 5.62103C6.4375 5.62103 6.86205 6.28332 7.20593 6.3088C7.54982 6.33427 9.40085 6.34701 9.61313 6.3088C9.8254 6.27059 10.2415 6.15171 10.3051 5.40026V3.93557C10.2683 3.74065 10.1799 3.55913 10.0493 3.40983C9.91867 3.26053 9.75048 3.14889 9.56218 3.08647C9.13763 2.96335 8.84894 3.21808 8.91262 2.41993C8.96357 1.79584 8.72582 1.18874 8.26306 1.03166C7.8003 0.874573 7.77907 1.32884 7.80879 1.80433C7.88667 2.23834 7.81953 2.68592 7.61775 3.07798C7.38 3.41337 6.4375 3.41337 6.4375 3.41337V5.62103Z" stroke="#2B2A29" stroke-width="0.27" stroke-linecap="round" stroke-linejoin="round"/>
</g>
</svg>
