<svg width="57" height="11" viewBox="0 0 57 11" fill="none" xmlns="http://www.w3.org/2000/svg">
<g id="Group 7804">
<path id="Vector" d="M31.296 6.98176L31.9439 10.3908L28.8438 8.83128L25.804 10.5L26.3275 7.07217L23.8 4.69528L27.2241 4.13402L28.7007 1L30.294 4.08128L33.7332 4.51447L31.296 6.98176Z" fill="#F5E9AA" stroke="#2B2A29" stroke-width="0.4" stroke-linecap="round" stroke-linejoin="round"/>
<path id="Vector_2" d="M42.696 6.98176L43.3439 10.3908L40.2438 8.83129L37.204 10.5L37.7276 7.07217L35.2 4.69528L38.6241 4.13402L40.1007 1L41.6941 4.08128L45.1332 4.51447L42.696 6.98176Z" stroke="#B1B5BF" stroke-width="0.4" stroke-linecap="round" stroke-linejoin="round"/>
<path id="Vector_3" d="M54.0956 6.98176L54.7435 10.3908L51.6434 8.83129L48.6036 10.5L49.1272 7.07217L46.5996 4.69528L50.0237 4.13402L51.5003 1L53.0937 4.08128L56.5328 4.51447L54.0956 6.98176Z" stroke="#B1B5BF" stroke-width="0.4" stroke-linecap="round" stroke-linejoin="round"/>
<path id="Vector_4" d="M8.49603 6.98176L9.14393 10.3908L6.04382 8.83128L3.00396 10.5L3.52756 7.07217L1 4.69528L4.42407 4.13402L5.90067 1L7.49405 4.08128L10.9332 4.51447L8.49603 6.98176Z" fill="#F5E9AA" stroke="#2B2A29" stroke-width="0.4" stroke-linecap="round" stroke-linejoin="round"/>
<path id="Vector_5" d="M19.8964 6.98176L20.5443 10.3908L17.4442 8.83128L14.4044 10.5L14.9279 7.07217L12.4004 4.69528L15.8245 4.13402L17.3011 1L18.8944 4.08128L22.3336 4.51447L19.8964 6.98176Z" fill="#F5E9AA" stroke="#2B2A29" stroke-width="0.4" stroke-linecap="round" stroke-linejoin="round"/>
</g>
</svg>
