<svg width="33" height="33" viewBox="0 0 33 33" fill="none" xmlns="http://www.w3.org/2000/svg">
<g id="&#208;&#161;&#208;&#187;&#208;&#190;&#208;&#185; 7">
<path id="Vector" d="M20.5068 7.16833V18.9934L10.7537 24.8049V13.1819L20.5068 7.16833Z" fill="#FCBDBD"/>
<path id="Vector_2" d="M1 19.2461L10.7532 24.8049V13.1819L1 7.16833V19.2461Z" fill="#F2D1BF" stroke="#2B2A29" stroke-width="0.7" stroke-linecap="round" stroke-linejoin="round"/>
<path id="Vector_3" d="M1 7.16521L10.8037 1L20.5063 7.16521L10.7532 13.1788L1 7.16521Z" fill="#F5E9AA"/>
<path id="Vector_4" d="M19.7739 25.4868C22.9751 25.4868 25.5702 22.8917 25.5702 19.6905C25.5702 16.4893 22.9751 13.8942 19.7739 13.8942C16.5726 13.8942 13.9775 16.4893 13.9775 19.6905C13.9775 22.8917 16.5726 25.4868 19.7739 25.4868Z" fill="white"/>
<path id="Vector_5" d="M25.2461 27.401L27.5505 25.1825L31.9217 29.5234L29.774 32.0249L25.2461 27.401Z" fill="#B2E8F9"/>
<path id="Vector_6" d="M1 7.16521L10.8037 1L20.5063 7.16521L10.7532 13.1788L1 7.16521Z" stroke="#2B2A29" stroke-width="0.7" stroke-linecap="round" stroke-linejoin="round"/>
<path id="Vector_7" d="M14.3411 22.6319L10.7532 24.8049L1 19.2461V7.16833" stroke="#2B2A29" stroke-width="0.7" stroke-linecap="round" stroke-linejoin="round"/>
<path id="Vector_8" d="M10.7537 13.1791V24.802" stroke="#2B2A29" stroke-width="0.7" stroke-linecap="round" stroke-linejoin="round"/>
<path id="Vector_9" d="M20.5063 7.16833V13.5862" stroke="#2B2A29" stroke-width="0.7" stroke-linecap="round" stroke-linejoin="round"/>
<path id="Vector_10" d="M19.7737 25.6626C23.0252 25.6626 25.661 23.0268 25.661 19.7753C25.661 16.5239 23.0252 13.8881 19.7737 13.8881C16.5223 13.8881 13.8865 16.5239 13.8865 19.7753C13.8865 23.0268 16.5223 25.6626 19.7737 25.6626Z" stroke="#2B2A29" stroke-width="0.7" stroke-linecap="round" stroke-linejoin="round"/>
<path id="Vector_11" d="M17.6267 19.5465L26.5208 10.6525H31.928" stroke="#2B2A29" stroke-width="0.7" stroke-linecap="round" stroke-linejoin="round"/>
<path id="Vector_12" d="M31.9272 7.67126H26.52" stroke="#2B2A29" stroke-width="0.7" stroke-linecap="round" stroke-linejoin="round"/>
<path id="Vector_13" d="M28.7454 13.5851H31.929" stroke="#2B2A29" stroke-width="0.7" stroke-linecap="round" stroke-linejoin="round"/>
<path id="Vector_14" d="M23.9629 23.91L26.1409 26.0931" stroke="#2B2A29" stroke-width="0.7" stroke-linecap="round" stroke-linejoin="round"/>
<path id="Vector_15" d="M25.3978 27.0442L27.1109 25.326C27.1579 25.2786 27.2137 25.241 27.2753 25.2154C27.3369 25.1897 27.403 25.1765 27.4697 25.1765C27.5364 25.1765 27.6024 25.1897 27.664 25.2154C27.7256 25.241 27.7815 25.2786 27.8285 25.326L31.8106 29.2828C31.9047 29.3775 31.9575 29.5056 31.9575 29.6391C31.9575 29.7726 31.9047 29.9007 31.8106 29.9954L30.0318 31.759C29.9848 31.8064 29.9289 31.844 29.8673 31.8697C29.8057 31.8953 29.7397 31.9085 29.673 31.9085C29.6063 31.9085 29.5402 31.8953 29.4786 31.8697C29.4171 31.844 29.3612 31.8064 29.3142 31.759L25.3927 27.7668C25.3449 27.7194 25.307 27.6629 25.2814 27.6007C25.2557 27.5385 25.2427 27.4717 25.2432 27.4044C25.2436 27.3371 25.2576 27.2706 25.2841 27.2087C25.3107 27.1468 25.3493 27.0909 25.3978 27.0442V27.0442Z" stroke="#2B2A29" stroke-width="0.7" stroke-linecap="round" stroke-linejoin="round"/>
</g>
</svg>
