<svg width="52" height="52" viewBox="0 0 52 52" fill="none" xmlns="http://www.w3.org/2000/svg">
<rect x="0.25" y="0.25" width="51.5" height="51.5" rx="9.75" stroke="#B1B5BF" stroke-width="0.5"/>
<path d="M30.5068 16.1683V27.9934L20.7537 33.8049V22.1819L30.5068 16.1683Z" fill="#FCBDBD"/>
<path d="M11 28.2461L20.7532 33.8049V22.1819L11 16.1683V28.2461Z" fill="#F2D1BF" stroke="#2B2A29" stroke-width="0.7" stroke-linecap="round" stroke-linejoin="round"/>
<path d="M11 16.1652L20.8037 10L30.5063 16.1652L20.7532 22.1788L11 16.1652Z" fill="#F5E9AA"/>
<path d="M29.7739 34.4868C32.9751 34.4868 35.5702 31.8917 35.5702 28.6905C35.5702 25.4893 32.9751 22.8942 29.7739 22.8942C26.5726 22.8942 23.9775 25.4893 23.9775 28.6905C23.9775 31.8917 26.5726 34.4868 29.7739 34.4868Z" fill="white"/>
<path d="M35.2461 36.401L37.5505 34.1825L41.9217 38.5234L39.774 41.0249L35.2461 36.401Z" fill="#B2E8F9"/>
<path d="M11 16.1652L20.8037 10L30.5063 16.1652L20.7532 22.1788L11 16.1652Z" stroke="#2B2A29" stroke-width="0.7" stroke-linecap="round" stroke-linejoin="round"/>
<path d="M24.3411 31.6319L20.7532 33.8049L11 28.2461V16.1683" stroke="#2B2A29" stroke-width="0.7" stroke-linecap="round" stroke-linejoin="round"/>
<path d="M20.7537 22.1791V33.802" stroke="#2B2A29" stroke-width="0.7" stroke-linecap="round" stroke-linejoin="round"/>
<path d="M30.5063 16.1683V22.5862" stroke="#2B2A29" stroke-width="0.7" stroke-linecap="round" stroke-linejoin="round"/>
<path d="M29.7737 34.6626C33.0252 34.6626 35.661 32.0268 35.661 28.7753C35.661 25.5239 33.0252 22.8881 29.7737 22.8881C26.5223 22.8881 23.8865 25.5239 23.8865 28.7753C23.8865 32.0268 26.5223 34.6626 29.7737 34.6626Z" stroke="#2B2A29" stroke-width="0.7" stroke-linecap="round" stroke-linejoin="round"/>
<path d="M27.6267 28.5465L36.5208 19.6525H41.928" stroke="#2B2A29" stroke-width="0.7" stroke-linecap="round" stroke-linejoin="round"/>
<path d="M41.9272 16.6713H36.52" stroke="#2B2A29" stroke-width="0.7" stroke-linecap="round" stroke-linejoin="round"/>
<path d="M38.7454 22.5851H41.929" stroke="#2B2A29" stroke-width="0.7" stroke-linecap="round" stroke-linejoin="round"/>
<path d="M33.9629 32.91L36.1409 35.0931" stroke="#2B2A29" stroke-width="0.7" stroke-linecap="round" stroke-linejoin="round"/>
<path d="M35.3978 36.0442L37.1109 34.326C37.1579 34.2786 37.2137 34.241 37.2753 34.2154C37.3369 34.1897 37.403 34.1765 37.4697 34.1765C37.5364 34.1765 37.6024 34.1897 37.664 34.2154C37.7256 34.241 37.7815 34.2786 37.8285 34.326L41.8106 38.2828C41.9047 38.3775 41.9575 38.5056 41.9575 38.6391C41.9575 38.7726 41.9047 38.9007 41.8106 38.9954L40.0318 40.759C39.9848 40.8064 39.9289 40.844 39.8673 40.8697C39.8057 40.8953 39.7397 40.9085 39.673 40.9085C39.6063 40.9085 39.5402 40.8953 39.4786 40.8697C39.4171 40.844 39.3612 40.8064 39.3142 40.759L35.3927 36.7668C35.3449 36.7194 35.307 36.6629 35.2814 36.6007C35.2557 36.5385 35.2427 36.4717 35.2432 36.4044C35.2436 36.3371 35.2576 36.2706 35.2841 36.2087C35.3107 36.1468 35.3493 36.0909 35.3978 36.0442V36.0442Z" stroke="#2B2A29" stroke-width="0.7" stroke-linecap="round" stroke-linejoin="round"/>
</svg>
