<svg width="44" height="26" viewBox="0 0 44 26" fill="none" xmlns="http://www.w3.org/2000/svg">
<path d="M28.2804 2.59797C28.818 2.00569 29.4824 1.54241 30.2241 1.24268C30.9657 0.942944 31.7654 0.814487 32.5636 0.866883C35.3948 0.99631 36.7457 2.10453 36.7457 2.10453C36.7457 2.10453 42.9704 7.96516 43.3061 8.48287C44.3375 9.76501 42.9016 12.8187 39.8196 10.6265C39.8196 10.6265 38.2018 13.4577 35.6901 11.6053C35.6901 11.6053 34.4484 14.6549 31.8154 12.847L29.6232 10.7559" fill="#F5E9AA"/>
<path d="M28.2804 2.59797C28.818 2.00569 29.4824 1.54241 30.2241 1.24268C30.9657 0.942944 31.7654 0.814487 32.5636 0.866883C35.3948 0.99631 36.7457 2.10453 36.7457 2.10453C36.7457 2.10453 42.9704 7.96516 43.3061 8.48287C44.3375 9.76501 42.9016 12.8187 39.8196 10.6265C39.8196 10.6265 38.2018 13.4577 35.6901 11.6053C35.6901 11.6053 34.4484 14.6549 31.8154 12.847L29.6232 10.7559" stroke="#2B2A29" stroke-width="0.7" stroke-linecap="round" stroke-linejoin="round"/>
<path d="M15.9285 2.59797C15.3909 2.00569 14.7265 1.54241 13.9848 1.24268C13.2432 0.942944 12.4435 0.814487 11.6453 0.866883C8.81406 0.99631 7.46316 2.10453 7.46316 2.10453C7.46316 2.10453 1.23851 7.96516 0.902812 8.48287C-0.128561 9.76501 1.30727 12.8187 4.38926 10.6265C4.38926 10.6265 6.0071 13.4577 8.5188 11.6053C8.5188 11.6053 9.76049 14.6549 12.3935 12.847L14.5857 10.7559" fill="#F5E9AA"/>
<path d="M15.9285 2.59797C15.3909 2.00569 14.7265 1.54241 13.9848 1.24268C13.2432 0.942944 12.4435 0.814487 11.6453 0.866883C8.81406 0.99631 7.46316 2.10453 7.46316 2.10453C7.46316 2.10453 1.23851 7.96516 0.902812 8.48287C-0.128561 9.76501 1.30727 12.8187 4.38926 10.6265C4.38926 10.6265 6.0071 13.4577 8.5188 11.6053C8.5188 11.6053 9.76049 14.6549 12.3935 12.847L14.5857 10.7559" stroke="#2B2A29" stroke-width="0.7" stroke-linecap="round" stroke-linejoin="round"/>
<path d="M28.4097 2.59908H15.8108C15.1407 2.59908 14.5974 3.14233 14.5974 3.81246V11.4042C14.5974 12.0743 15.1407 12.6176 15.8108 12.6176H28.4097C29.0799 12.6176 29.6231 12.0743 29.6231 11.4042V3.81246C29.6231 3.14233 29.0799 2.59908 28.4097 2.59908Z" fill="white" stroke="#2B2A29" stroke-width="0.7" stroke-linecap="round" stroke-linejoin="round"/>
<path d="M29.2066 2.82635L22.1083 8.94583L15.01 2.82635" stroke="#2B2A29" stroke-width="0.7" stroke-linecap="round" stroke-linejoin="round"/>
<path d="M15.01 12.3108L20.0981 7.22266" stroke="#2B2A29" stroke-width="0.7" stroke-linecap="round" stroke-linejoin="round"/>
<path d="M29.2067 12.3108L24.1186 7.22266" stroke="#2B2A29" stroke-width="0.7" stroke-linecap="round" stroke-linejoin="round"/>
<path d="M32.6688 8.53303L35.7144 11.5786" stroke="#2B2A29" stroke-width="0.7" stroke-linecap="round" stroke-linejoin="round"/>
<path d="M35.0112 5.88388L39.7151 10.5878" stroke="#2B2A29" stroke-width="0.7" stroke-linecap="round" stroke-linejoin="round"/>
<path d="M11.5404 8.53303L8.49478 11.5786" stroke="#2B2A29" stroke-width="0.7" stroke-linecap="round" stroke-linejoin="round"/>
<path d="M9.19852 5.88388L4.49465 10.5878" stroke="#2B2A29" stroke-width="0.7" stroke-linecap="round" stroke-linejoin="round"/>
<path d="M22.1048 15.4542V23.8225" stroke="#2B2A29" stroke-width="0.7" stroke-linecap="round" stroke-linejoin="round"/>
<path d="M26.3355 18.5046V24.7495" stroke="#2B2A29" stroke-width="0.7" stroke-linecap="round" stroke-linejoin="round"/>
<path d="M17.5547 18.5046V24.7495" stroke="#2B2A29" stroke-width="0.7" stroke-linecap="round" stroke-linejoin="round"/>
</svg>
