<svg width="50" height="50" viewBox="0 0 50 50" fill="none" xmlns="http://www.w3.org/2000/svg">
<g id="Group 10246">
<g id="Group 8014">
<g id="&#208;&#161;&#208;&#187;&#208;&#190;&#208;&#185; 2">
<g id="Vector">
<path d="M31.2803 19.598C31.8179 19.0057 32.4823 18.5424 33.224 18.2427C33.9656 17.9429 34.7653 17.8145 35.5635 17.8669C38.3947 17.9963 39.7456 19.1045 39.7456 19.1045C39.7456 19.1045 45.9703 24.9652 46.306 25.4829C47.3373 26.765 45.9015 29.8187 42.8195 27.6265C42.8195 27.6265 41.2017 30.4577 38.69 28.6053C38.69 28.6053 37.4483 31.6549 34.8153 29.847L32.6231 27.7559" fill="#F5E9AA"/>
<path d="M31.2803 19.598C31.8179 19.0057 32.4823 18.5424 33.224 18.2427C33.9656 17.9429 34.7653 17.8145 35.5635 17.8669C38.3947 17.9963 39.7456 19.1045 39.7456 19.1045C39.7456 19.1045 45.9703 24.9652 46.306 25.4829C47.3373 26.765 45.9015 29.8187 42.8195 27.6265C42.8195 27.6265 41.2017 30.4577 38.69 28.6053C38.69 28.6053 37.4483 31.6549 34.8153 29.847L32.6231 27.7559" stroke="#2B2A29" stroke-width="0.7" stroke-linecap="round" stroke-linejoin="round"/>
</g>
<g id="Vector_2">
<path d="M18.9285 19.598C18.3909 19.0057 17.7265 18.5424 16.9848 18.2427C16.2432 17.9429 15.4435 17.8145 14.6453 17.8669C11.8141 17.9963 10.4632 19.1045 10.4632 19.1045C10.4632 19.1045 4.23851 24.9652 3.90281 25.4829C2.87144 26.765 4.30727 29.8187 7.38926 27.6265C7.38926 27.6265 9.0071 30.4577 11.5188 28.6053C11.5188 28.6053 12.7605 31.6549 15.3935 29.847L17.5857 27.7559" fill="#F5E9AA"/>
<path d="M18.9285 19.598C18.3909 19.0057 17.7265 18.5424 16.9848 18.2427C16.2432 17.9429 15.4435 17.8145 14.6453 17.8669C11.8141 17.9963 10.4632 19.1045 10.4632 19.1045C10.4632 19.1045 4.23851 24.9652 3.90281 25.4829C2.87144 26.765 4.30727 29.8187 7.38926 27.6265C7.38926 27.6265 9.0071 30.4577 11.5188 28.6053C11.5188 28.6053 12.7605 31.6549 15.3935 29.847L17.5857 27.7559" stroke="#2B2A29" stroke-width="0.7" stroke-linecap="round" stroke-linejoin="round"/>
</g>
<path id="Vector_3" d="M31.4097 19.5991H18.8108C18.1407 19.5991 17.5974 20.1423 17.5974 20.8124V28.4042C17.5974 29.0743 18.1407 29.6175 18.8108 29.6175H31.4097C32.0799 29.6175 32.6231 29.0743 32.6231 28.4042V20.8124C32.6231 20.1423 32.0799 19.5991 31.4097 19.5991Z" fill="white" stroke="#2B2A29" stroke-width="0.7" stroke-linecap="round" stroke-linejoin="round"/>
<path id="Vector_4" d="M32.2066 19.8264L25.1083 25.9458L18.01 19.8264" stroke="#2B2A29" stroke-width="0.7" stroke-linecap="round" stroke-linejoin="round"/>
<path id="Vector_5" d="M18.01 29.3108L23.0981 24.2227" stroke="#2B2A29" stroke-width="0.7" stroke-linecap="round" stroke-linejoin="round"/>
<path id="Vector_6" d="M32.2068 29.3108L27.1187 24.2227" stroke="#2B2A29" stroke-width="0.7" stroke-linecap="round" stroke-linejoin="round"/>
<path id="Vector_7" d="M35.6687 25.533L38.7143 28.5786" stroke="#2B2A29" stroke-width="0.7" stroke-linecap="round" stroke-linejoin="round"/>
<path id="Vector_8" d="M38.0112 22.8839L42.7151 27.5877" stroke="#2B2A29" stroke-width="0.7" stroke-linecap="round" stroke-linejoin="round"/>
<path id="Vector_9" d="M14.5405 25.533L11.4949 28.5786" stroke="#2B2A29" stroke-width="0.7" stroke-linecap="round" stroke-linejoin="round"/>
<path id="Vector_10" d="M12.1985 22.8839L7.49463 27.5877" stroke="#2B2A29" stroke-width="0.7" stroke-linecap="round" stroke-linejoin="round"/>
<path id="Vector_11" d="M25.1047 32.4542V40.8224" stroke="#2B2A29" stroke-width="0.7" stroke-linecap="round" stroke-linejoin="round"/>
<path id="Vector_12" d="M29.3354 35.5046V41.7495" stroke="#2B2A29" stroke-width="0.7" stroke-linecap="round" stroke-linejoin="round"/>
<path id="Vector_13" d="M20.5547 35.5046V41.7495" stroke="#2B2A29" stroke-width="0.7" stroke-linecap="round" stroke-linejoin="round"/>
</g>
</g>
<rect id="Rectangle 1" x="0.25" y="0.25" width="49.5" height="49.5" rx="9.75" stroke="#B1B5BF" stroke-width="0.5"/>
</g>
</svg>
