<svg width="43" height="43" viewBox="0 0 43 43" fill="none" xmlns="http://www.w3.org/2000/svg">
<rect x="1" y="1" width="41" height="41" rx="20.5" fill="#FAFDFF" stroke="#BDF0F4" stroke-width="2"/>
<path d="M27.8128 20.4046C27.8135 21.2513 27.6159 22.0864 27.2359 22.843C26.8558 23.5996 26.3039 24.2567 25.6243 24.7617C24.9447 25.2667 24.1562 25.6056 23.3222 25.7512C22.4881 25.8967 21.6315 25.845 20.821 25.6L12.0618 34.3592C11.6024 34.7826 10.9972 35.012 10.3726 34.9996C9.74797 34.9871 9.15237 34.7336 8.71031 34.2922C8.26824 33.8507 8.01394 33.2555 8.00056 32.6309C7.98718 32.0063 8.21576 31.4007 8.63851 30.9408L17.296 22.2833C16.9145 21.2517 16.8553 20.1286 17.1264 19.0627C17.3974 17.9968 17.9859 17.0384 18.8138 16.3144C19.6418 15.5904 20.6701 15.135 21.7627 15.0085C22.8552 14.8821 23.9604 15.0905 24.9318 15.6062L22.2687 18.2886C21.9939 18.6181 21.8523 19.0385 21.8717 19.4671C21.8911 19.8957 22.07 20.3016 22.3734 20.605C22.6768 20.9083 23.0826 21.0873 23.5113 21.1067C23.9399 21.126 24.3602 20.9844 24.6897 20.7096L27.2947 18.1046C27.6321 18.8247 27.8088 19.6094 27.8128 20.4046Z" fill="#BDF0F4" stroke="#2B2A29" stroke-width="0.5" stroke-linecap="round" stroke-linejoin="round"/>
<path d="M10.6869 26.4377L15.0157 22.1138C14.883 21.5538 14.8163 20.9801 14.8171 20.4046C14.8206 18.7654 15.3596 17.1722 16.3521 15.8676C16.9934 14.9959 17.8143 14.2718 18.7594 13.7443C19.7044 13.2168 20.7516 12.8981 21.8303 12.8097C22.909 12.7214 23.994 12.8654 25.0123 13.2322C26.0306 13.5989 26.9584 14.1797 27.733 14.9355C28.5077 15.6913 29.1113 16.6045 29.503 17.6134C29.8947 18.6223 30.0655 19.7035 30.0038 20.7841C29.9421 21.8646 29.6493 22.9193 29.1453 23.8771C28.6412 24.8348 27.9376 25.6734 27.0819 26.336C25.7475 27.3989 24.0911 27.976 22.3852 27.9726C21.9765 27.9724 21.5686 27.9401 21.165 27.8758L17.3544 31.6864C17.5643 31.6209 17.7832 31.5882 18.0032 31.5896C18.4968 31.5876 18.9777 31.7461 19.3734 32.0414C19.769 32.3366 20.058 32.7524 20.1966 33.2262C20.3405 33.6917 20.6296 34.0989 21.0217 34.3881C21.4138 34.6773 21.8883 34.8334 22.3755 34.8334C22.8627 34.8334 23.3372 34.6773 23.7293 34.3881C24.1214 34.0989 24.4105 33.6917 24.5544 33.2262C24.6592 32.8709 24.849 32.5464 25.1074 32.2809C25.3658 32.0154 25.685 31.8169 26.0374 31.7024C26.3897 31.588 26.7646 31.5611 27.1297 31.6241C27.4948 31.6872 27.839 31.8382 28.1326 32.0641C28.4689 32.3232 28.8707 32.4834 29.293 32.527C29.7152 32.5705 30.1413 32.4956 30.5233 32.3106C30.9054 32.1256 31.2284 31.8378 31.4561 31.4796C31.6838 31.1213 31.8072 30.7067 31.8126 30.2823C31.8114 30.0131 31.7639 29.7461 31.6721 29.493C31.5478 29.1441 31.5102 28.7702 31.5628 28.4035C31.6154 28.0368 31.7565 27.6885 31.9739 27.3886C32.1913 27.0887 32.4785 26.8463 32.8106 26.6823C33.1427 26.5183 33.5098 26.4377 33.8801 26.4474C34.1876 26.4579 34.4941 26.4059 34.7809 26.2943C35.0677 26.1828 35.3289 26.0141 35.5485 25.7986C35.7681 25.583 35.9416 25.3251 36.0585 25.0404C36.1754 24.7558 36.2332 24.4503 36.2285 24.1426C36.2285 23.7751 36.1374 23.4134 35.9633 23.0897C35.7892 22.7661 35.5376 22.4907 35.231 22.2881C34.7585 21.967 34.4248 21.4794 34.2965 20.9227C34.2578 20.7543 34.2383 20.5822 34.2384 20.4094C34.2414 20.0397 34.3331 19.6761 34.5058 19.3492C34.6786 19.0222 34.9273 18.7416 35.231 18.5307C35.6434 18.2562 35.9547 17.8543 36.1174 17.3864C36.2801 16.9185 36.2853 16.4102 36.1323 15.939C35.9793 15.4678 35.6763 15.0596 35.2697 14.7766C34.8631 14.4936 34.3751 14.3513 33.8801 14.3715C33.586 14.3808 33.293 14.3314 33.0182 14.2262C32.4556 14.018 31.9982 13.5955 31.746 13.0512C31.4938 12.5069 31.4673 11.8849 31.6721 11.321C31.7946 10.9755 31.8323 10.6055 31.7821 10.2424C31.7319 9.87923 31.5953 9.53343 31.3837 9.23405C31.1721 8.93467 30.8917 8.69047 30.5661 8.52196C30.2405 8.35346 29.8792 8.26558 29.5126 8.26571H29.3625C28.9133 8.30043 28.4849 8.4691 28.1326 8.74991C27.8404 8.97501 27.4979 9.12587 27.1345 9.18952C26.7711 9.25317 26.3977 9.22772 26.0464 9.11536C25.695 9.00299 25.3761 8.80707 25.1171 8.54439C24.8581 8.28171 24.6667 7.96011 24.5592 7.60719C24.4154 7.14169 24.1262 6.73449 23.7341 6.44527C23.342 6.15604 22.8676 6 22.3803 6C21.8931 6 21.4187 6.15604 21.0266 6.44527C20.6345 6.73449 20.3453 7.14169 20.2014 7.60719C20.0966 7.96253 19.9068 8.28698 19.6484 8.55248C19.39 8.81798 19.0709 9.01653 18.7185 9.13097C18.3661 9.2454 17.9912 9.27227 17.6261 9.20925C17.261 9.14623 16.9168 8.99522 16.6232 8.76927C16.2871 8.51116 15.886 8.35137 15.4644 8.30767C15.0429 8.26397 14.6175 8.33809 14.2356 8.52176C13.8537 8.70544 13.5303 8.99148 13.3013 9.34805C13.0722 9.70462 12.9466 10.1177 12.9385 10.5414C12.9396 10.8106 12.9871 11.0776 13.0789 11.3307C13.1988 11.6749 13.2345 12.0428 13.183 12.4036C13.1315 12.7644 12.9942 13.1077 12.7827 13.4045C12.5712 13.7014 12.2916 13.9432 11.9674 14.1098C11.6432 14.2763 11.2838 14.3627 10.9193 14.3618H10.8709C10.5634 14.3512 10.2569 14.4033 9.97009 14.5149C9.68328 14.6264 9.42214 14.7951 9.20252 15.0106C8.98289 15.2262 8.80937 15.4841 8.69248 15.7688C8.57559 16.0534 8.51778 16.3589 8.52255 16.6666C8.5207 17.0339 8.61051 17.3958 8.78383 17.7196C8.95715 18.0434 9.20852 18.3189 9.51516 18.5211C9.82075 18.7305 10.0707 19.0113 10.2434 19.339C10.4161 19.6668 10.5064 20.0317 10.5064 20.4022C10.5064 20.7727 10.4161 21.1376 10.2434 21.4653C10.0707 21.7931 9.82075 22.0738 9.51516 22.2833C9.1235 22.5535 8.82616 22.9394 8.6648 23.3871C8.50343 23.8347 8.48612 24.3216 8.61529 24.7796C8.74446 25.2375 9.01363 25.6436 9.38512 25.941C9.7566 26.2383 10.2118 26.412 10.6869 26.4377Z" fill="white" stroke="#2B2A29" stroke-width="0.5" stroke-linecap="round" stroke-linejoin="round"/>
</svg>
