<svg width="11" height="10" viewBox="0 0 11 10" fill="none" xmlns="http://www.w3.org/2000/svg">
<path id="Star 3" d="M5.24271 0.505243C5.35197 0.168964 5.82772 0.168965 5.93698 0.505243L6.69628 2.84212C6.78129 3.10376 7.0251 3.2809 7.3002 3.2809H9.75734C10.1109 3.2809 10.2579 3.73336 9.97188 3.94119L7.98401 5.38546C7.76145 5.54716 7.66832 5.83378 7.75334 6.09541L8.51263 8.43229C8.6219 8.76857 8.23701 9.04821 7.95096 8.84038L5.96309 7.3961C5.74053 7.23441 5.43916 7.23441 5.2166 7.3961L3.22873 8.84037C2.94268 9.04821 2.55779 8.76857 2.66705 8.43229L3.42635 6.09541C3.51136 5.83378 3.41823 5.54716 3.19567 5.38546L1.20781 3.94119C0.92175 3.73336 1.06876 3.2809 1.42235 3.2809H3.87949C4.15459 3.2809 4.3984 3.10376 4.48341 2.84212L5.24271 0.505243Z" fill="#F5F3B5" stroke="#2B2A29" stroke-width="0.27"/>
</svg>
