<svg width="43" height="43" viewBox="0 0 43 43" fill="none" xmlns="http://www.w3.org/2000/svg">
<rect width="43" height="43" rx="21.5" fill="#FEFFFC"/>
<rect x="0.25" y="0.25" width="42.5" height="42.5" rx="21.25" stroke="#BFBBB1" stroke-opacity="0.2" stroke-width="0.5"/>
<path d="M22.5484 25.193L19.569 22.0854C21.475 19.7583 22.9079 17.0811 23.7872 14.2044H27.5248V10.5629H18.9817V8H15.4897V10.5629H7V14.1831H20.3379C19.6004 16.1673 18.5553 18.0232 17.241 19.6827C16.3357 18.5413 15.5552 17.3061 14.913 15.9985L14.7742 15.6888H11.2075L11.5172 16.4363C12.3779 18.4565 13.5213 20.3442 14.913 22.0427L8.7193 28.5034L11.1754 31.0984L17.241 24.6911L21.2242 28.8985L22.5484 25.193Z" fill="#FEFFFC" stroke="#B1B5BF" stroke-width="0.5"/>
<path d="M29.1477 18.2518H25.944L20.124 34.6973H23.6801L25.047 30.8529H30.0554L31.4223 34.6973H34.9997L29.1477 18.2518ZM28.7739 27.2221H26.3391L27.5245 23.8048L28.7739 27.2221Z" fill="#FEFFFC" stroke="#B1B5BF" stroke-width="0.5"/>
</svg>
