<svg width="12" height="13" viewBox="0 0 12 13" fill="none" xmlns="http://www.w3.org/2000/svg">
<path d="M7.17171 11.4565H0.421875V1H9.18937V6.49987" fill="#B2E8F9"/>
<path d="M7.17171 11.4565H0.421875V1H9.18937V6.49987" stroke="#2B2A29" stroke-width="0.3" stroke-linecap="round" stroke-linejoin="round"/>
<path d="M4.93785 3.65461C4.93785 4.03574 4.82488 4.40831 4.61322 4.72527C4.40156 5.04222 4.1007 5.28933 3.74866 5.43537C3.39662 5.5814 3.00919 5.61982 2.63532 5.54576C2.26146 5.47171 1.91793 5.28849 1.64815 5.01928C1.37836 4.75007 1.19443 4.40693 1.11958 4.03322C1.04473 3.65951 1.08232 3.272 1.22762 2.91965C1.37291 2.5673 1.61938 2.26592 1.93588 2.05359C2.25239 1.84126 2.62473 1.7275 3.00586 1.7267C3.26006 1.72369 3.5123 1.77148 3.74779 1.86725C3.98328 1.96302 4.19727 2.10485 4.37722 2.28442C4.55717 2.46399 4.69946 2.67769 4.79573 2.91297C4.892 3.14826 4.94032 3.4004 4.93785 3.65461Z" fill="#BCF4AB" stroke="#2B2A29" stroke-width="0.3" stroke-linecap="round" stroke-linejoin="round"/>
<path d="M3.00882 4.04108C3.3675 4.04108 3.65826 3.75031 3.65826 3.39163C3.65826 3.03295 3.3675 2.74219 3.00882 2.74219C2.65014 2.74219 2.35938 3.03295 2.35938 3.39163C2.35938 3.75031 2.65014 4.04108 3.00882 4.04108Z" fill="white" stroke="#2B2A29" stroke-width="0.3" stroke-linecap="round" stroke-linejoin="round"/>
<path d="M4.46493 4.91099C4.28415 5.11951 4.06066 5.28674 3.8096 5.40135C3.55854 5.51596 3.28579 5.57528 3.00981 5.57528C2.73383 5.57528 2.46107 5.51596 2.21002 5.40135C1.95896 5.28674 1.73547 5.11951 1.55469 4.91099C1.69558 4.64754 1.90536 4.42729 2.16163 4.27373C2.4179 4.12017 2.71105 4.03906 3.00981 4.03906C3.30857 4.03906 3.60172 4.12017 3.85799 4.27373C4.11426 4.42729 4.32404 4.64754 4.46493 4.91099Z" fill="white" stroke="#2B2A29" stroke-width="0.3" stroke-linecap="round" stroke-linejoin="round"/>
<path d="M5.67578 3.57422H8.16736" stroke="#2B2A29" stroke-width="0.3" stroke-linecap="round" stroke-linejoin="round"/>
<path d="M1.08203 6.14844H3.91875" stroke="#2B2A29" stroke-width="0.3" stroke-linecap="round" stroke-linejoin="round"/>
<path d="M1.08203 7.08594H2.40747" stroke="#2B2A29" stroke-width="0.3" stroke-linecap="round" stroke-linejoin="round"/>
<path d="M1.14453 8.33594H3.11941" stroke="#2B2A29" stroke-width="0.3" stroke-linecap="round" stroke-linejoin="round"/>
<path d="M1.08203 9.21094H1.5538" stroke="#2B2A29" stroke-width="0.3" stroke-linecap="round" stroke-linejoin="round"/>
<path d="M2.13281 9.21094H3.36431" stroke="#2B2A29" stroke-width="0.3" stroke-linecap="round" stroke-linejoin="round"/>
<path d="M7.66285 1.72656H6.0515C5.77064 1.72656 5.54297 1.95424 5.54297 2.23509C5.54297 2.51594 5.77064 2.74362 6.0515 2.74362H7.66285C7.9437 2.74362 8.17138 2.51594 8.17138 2.23509C8.17138 1.95424 7.9437 1.72656 7.66285 1.72656Z" fill="#F5E9AA" stroke="#2B2A29" stroke-width="0.3" stroke-linecap="round" stroke-linejoin="round"/>
<path d="M7.9218 11.9999C9.57862 11.9999 10.9217 10.6567 10.9217 8.99993C10.9217 7.34311 9.57862 6 7.9218 6C6.26499 6 4.92188 7.34311 4.92188 8.99993C4.92188 10.6567 6.26499 11.9999 7.9218 11.9999Z" fill="#BCF4AB" stroke="#2B2A29" stroke-width="0.3" stroke-linecap="round" stroke-linejoin="round"/>
<path d="M9.74174 8.12091L7.52449 10.3382C7.50505 10.3576 7.48197 10.3731 7.45657 10.3836C7.43116 10.3941 7.40393 10.3995 7.37643 10.3995C7.34893 10.3995 7.3217 10.3941 7.29629 10.3836C7.27089 10.3731 7.2478 10.3576 7.22837 10.3382L6.10562 9.21541C6.07684 9.18676 6.05406 9.15267 6.03861 9.11512C6.02316 9.07757 6.01535 9.03732 6.01563 8.99672C6.01541 8.936 6.03329 8.87659 6.06697 8.82608C6.10066 8.77557 6.14864 8.73623 6.20478 8.7131C6.26092 8.68997 6.32268 8.6841 6.38217 8.69622C6.44167 8.70834 6.4962 8.73792 6.53881 8.78117L7.22942 9.47177C7.24885 9.49122 7.27193 9.50666 7.29734 9.51719C7.32274 9.52772 7.34997 9.53314 7.37748 9.53314C7.40498 9.53314 7.43221 9.52772 7.45761 9.51719C7.48302 9.50666 7.5061 9.49122 7.52554 9.47177L9.30959 7.68876C9.35226 7.64544 9.40689 7.61585 9.46649 7.60376C9.52608 7.59167 9.58793 7.59763 9.64411 7.62089C9.7003 7.64415 9.74826 7.68365 9.78187 7.73432C9.81548 7.785 9.8332 7.84455 9.83277 7.90536C9.8325 7.94551 9.82432 7.98521 9.8087 8.02219C9.79308 8.05918 9.77033 8.09272 9.74174 8.12091Z" fill="white" stroke="#2B2A29" stroke-width="0.3" stroke-linecap="round" stroke-linejoin="round"/>
</svg>
