<svg width="79" height="79" viewBox="0 0 79 79" fill="none" xmlns="http://www.w3.org/2000/svg">
<rect x="0.35" y="0.35" width="77.7219" height="77.7219" rx="38.8609" fill="#B5DEF5" stroke="#2B2A29" stroke-width="0.7"/>
<rect x="0.35" y="0.35" width="77.7219" height="77.7219" rx="38.8609" stroke="#2B2A29" stroke-width="0.7"/>
<mask id="mask0_23_1067" style="mask-type:alpha" maskUnits="userSpaceOnUse" x="0" y="-1" width="79" height="80">
<rect x="0.35" y="0.349878" width="77.7219" height="77.7219" rx="38.8609" fill="#B5DEF5" stroke="#2B2A29" stroke-width="0.7"/>
</mask>
<g mask="url(#mask0_23_1067)">
<path d="M5.88281 83.1693V71.9451C5.88281 71.9451 28.7134 63.1227 30.8504 57.741C30.9484 56.9106 30.9484 56.0716 30.8504 55.2413C30.8504 55.2413 25.8412 50.8791 25.949 46.2326C25.949 46.2326 23.8218 45.4974 23.6356 42.1546C23.4493 38.8119 25.0177 38.606 25.0177 38.606C25.0177 38.606 23.7042 27.4897 26.9783 23.1667C30.2524 18.8437 34.1245 17.785 39.8885 17.785C45.6525 17.785 47.8679 19.079 50.7401 22.608C53.6123 26.137 53.3378 33.1851 53.1614 38.2041C53.1614 38.2041 54.4554 38.8511 54.4554 41.5371C54.4554 44.223 53.0634 45.066 52.2301 45.8993C51.58 49.4491 49.8714 52.7194 47.3288 55.2805V57.692C47.3288 57.692 53.6123 65.6714 71.6396 71.8863V84.0123L5.88281 83.1693Z" fill="white" stroke="#2B2A29" stroke-width="0.7" stroke-linecap="round" stroke-linejoin="round"/>
<path d="M71.0187 72.1098V83.3928L6.24219 82.5693V72.1588L6.91858 71.8942C7.54595 71.6393 8.4478 71.2766 9.54571 70.8159C11.7219 69.9042 14.6529 68.6299 17.6428 67.179C20.5743 65.8016 23.4191 64.2466 26.1613 62.5227L26.7691 62.1208C30.3964 65.0111 34.9876 66.413 39.6107 66.0419C43.7099 65.7385 47.622 64.2044 50.8348 61.6405C51.2759 61.9934 51.8151 62.3561 52.2856 62.7384C58.0461 66.748 64.3556 69.9044 71.0187 72.1098Z" fill="#C5CEFB"/>
<path d="M52.347 29.1167L49.563 25.1956C49.3523 24.9408 49.0929 24.7306 48.8001 24.5771C48.5072 24.4236 48.1867 24.33 47.8573 24.3017C47.5279 24.2734 47.1961 24.311 46.8814 24.4123C46.5667 24.5136 46.2753 24.6766 46.0242 24.8917C44.4166 26.2935 41.8678 27.9894 38.9858 27.9894C36.4283 27.8279 34.0047 26.7892 32.1239 25.0486C31.8611 24.8241 31.5544 24.6568 31.2234 24.5573C30.8924 24.4579 30.5443 24.4284 30.2013 24.4708C29.8583 24.5132 29.5278 24.6266 29.231 24.8037C28.9342 24.9808 28.6775 25.2178 28.4773 25.4995L25.1836 29.548C25.2568 28.6723 25.3812 27.8017 25.5561 26.9405C25.7836 25.4791 26.3254 24.0845 27.1441 22.8528C28.4702 20.9835 30.3135 19.5423 32.4474 18.7062C34.7653 17.9222 37.2074 17.57 39.6524 17.6671C41.8042 17.5474 43.9561 17.9021 45.9556 18.7062C47.6048 19.5701 49.0309 20.8049 50.1217 22.3136C51.4353 23.9311 52.0725 26.3818 52.347 29.1167Z" fill="#F2D1BF" stroke="#2B2A29" stroke-width="0.7" stroke-miterlimit="10" stroke-linecap="round"/>
<path d="M34.0078 49.7811C34.0078 49.7811 39.066 54.8393 44.1242 49.7811" stroke="#2B2A29" stroke-width="0.7" stroke-miterlimit="10" stroke-linecap="round"/>
<path d="M35.7494 38.2534C35.7494 38.2534 34.1711 40.2139 32.2204 40.2139C30.2696 40.2139 28.6914 38.2534 28.6914 38.2534C28.6914 38.2534 30.2696 36.2928 32.2204 36.2928C34.1711 36.2928 35.7494 38.2534 35.7494 38.2534Z" stroke="#2B2A29" stroke-width="0.7" stroke-miterlimit="10" stroke-linecap="round"/>
<path d="M49.472 38.2538C49.472 38.2538 47.8938 40.2143 45.943 40.2143C43.9923 40.2143 42.4141 38.2538 42.4141 38.2538" stroke="#2B2A29" stroke-width="0.7" stroke-miterlimit="10" stroke-linecap="round"/>
<path d="M28.066 35.4286C28.7856 34.6829 29.6896 34.1405 30.6863 33.8565C31.683 33.5725 32.737 33.5568 33.7417 33.8112C34.795 33.9901 35.7673 34.4899 36.5257 35.2424C37.0482 35.9299 37.3614 36.7536 37.4276 37.6146C37.5861 39.561 37.4539 41.5202 37.0355 43.4277C36.8982 44.2119 36.7512 44.9863 36.6531 45.7803C36.5891 46.0465 36.6105 46.3262 36.7143 46.5795C36.8181 46.8329 36.9991 47.0472 37.2315 47.1919C38.0151 47.6146 38.9083 47.7902 39.7936 47.6957C40.6789 47.6012 41.5149 47.2411 42.1917 46.6626C42.672 46.2116 41.9466 45.4764 41.4663 45.9372C40.7878 46.4841 39.9225 46.7444 39.0548 46.6626C38.5843 46.6626 37.702 46.5645 37.653 46.0156C37.6604 45.6439 37.7164 45.2748 37.8197 44.9177C37.8883 44.4766 37.9667 44.0354 38.0451 43.6041C38.202 42.6238 38.3392 41.722 38.4372 40.7809C38.7602 38.9838 38.5839 37.1325 37.9275 35.4286C37.1041 33.7328 35.1631 32.9191 33.3888 32.6643C32.3008 32.4848 31.1854 32.5741 30.1397 32.9243C29.0941 33.2746 28.15 33.8752 27.3896 34.6738C26.9288 35.1542 27.6542 35.8796 28.115 35.3992L28.066 35.4286Z" fill="#2B2A29"/>
<path d="M32.2225 39.2339C32.7639 39.2339 33.2027 38.795 33.2027 38.2536C33.2027 37.7122 32.7639 37.2733 32.2225 37.2733C31.6811 37.2733 31.2422 37.7122 31.2422 38.2536C31.2422 38.795 31.6811 39.2339 32.2225 39.2339Z" stroke="#2B2A29" stroke-width="0.7" stroke-miterlimit="10" stroke-linecap="round"/>
<path d="M30.2305 54.6639C30.2305 54.6639 34.5633 58.2027 35.9455 58.5066C37.3276 58.8105 40.739 59.0948 42.3565 58.5066C44.317 57.791 47.6695 54.9188 47.6695 54.9188" stroke="#2B2A29" stroke-width="0.7" stroke-miterlimit="10" stroke-linecap="round"/>
<path d="M26.8516 61.9644C27.1891 62.3326 27.5673 62.6615 27.9789 62.9447V62.9447C29.613 64.1684 31.4923 65.0244 33.488 65.4542H33.5468C35.531 65.8953 37.5645 66.0733 39.5951 65.9835C44.5749 65.8169 47.6726 64.2386 49.5645 62.5035C50.0622 62.0579 50.5122 61.5618 50.9075 61.0233" stroke="#2B2A29" stroke-width="0.7" stroke-miterlimit="10" stroke-linecap="round"/>
<path d="M16.1665 42.8868C15.6842 42.8856 15.2064 42.9794 14.7605 43.1631C14.3145 43.3468 13.9092 43.6166 13.5677 43.9572C13.2262 44.2977 12.9553 44.7023 12.7705 45.1478C12.5856 45.5932 12.4904 46.0708 12.4904 46.5531C12.4917 46.0712 12.3978 45.5939 12.214 45.1485C12.0302 44.7031 11.7602 44.2985 11.4195 43.9578C11.0788 43.6171 10.6741 43.3471 10.2287 43.1633C9.78336 42.9795 9.30604 42.8855 8.82422 42.8868C9.3065 42.8868 9.78404 42.7917 10.2295 42.6068C10.6749 42.422 11.0795 42.151 11.4201 41.8096C11.7607 41.4681 12.0305 41.0628 12.2142 40.6168C12.3979 40.1709 12.4917 39.6931 12.4904 39.2108C12.4904 39.6936 12.5855 40.1716 12.7703 40.6176C12.955 41.0636 13.2258 41.4688 13.5671 41.8102C13.9085 42.1515 14.3137 42.4223 14.7597 42.607C15.2057 42.7918 15.6837 42.8868 16.1665 42.8868Z" fill="white" stroke="#2B2A29" stroke-width="0.7" stroke-linecap="round" stroke-linejoin="round"/>
<path d="M39.6899 11.5099C39.2076 11.5098 38.7301 11.605 38.2846 11.7899C37.8392 11.9747 37.4346 12.2456 37.094 12.5871C36.7535 12.9286 36.4836 13.3339 36.2999 13.7799C36.1163 14.2258 36.0224 14.7036 36.0237 15.1859C36.0237 14.2109 35.6364 13.2759 34.947 12.5865C34.2576 11.8971 33.3226 11.5099 32.3477 11.5099C32.8299 11.5111 33.3077 11.4173 33.7537 11.2336C34.1996 11.0499 34.6049 10.7801 34.9464 10.4395C35.2879 10.0989 35.5588 9.69435 35.7437 9.2489C35.9285 8.80345 36.0237 8.32591 36.0237 7.84363C36.0224 8.32545 36.1163 8.80277 36.3001 9.24816C36.4839 9.69355 36.7539 10.0982 37.0946 10.4389C37.4353 10.7796 37.84 11.0496 38.2854 11.2334C38.7308 11.4172 39.2081 11.5111 39.6899 11.5099Z" fill="white" stroke="#2B2A29" stroke-width="0.7" stroke-linecap="round" stroke-linejoin="round"/>
<path d="M66.1587 52.6817C65.6764 52.6817 65.1988 52.7769 64.7534 52.9617C64.3079 53.1466 63.9033 53.4175 63.5628 53.759C63.2222 54.1005 62.9524 54.5058 62.7687 54.9517C62.585 55.3977 62.4911 55.8755 62.4924 56.3577C62.4924 55.3828 62.1051 54.4478 61.4157 53.7584C60.7264 53.069 59.7913 52.6817 58.8164 52.6817C59.2987 52.683 59.7765 52.5891 60.2224 52.4055C60.6684 52.2218 61.0737 51.952 61.4152 51.6114C61.7566 51.2708 62.0276 50.8662 62.2124 50.4208C62.3973 49.9753 62.4924 49.4978 62.4924 49.0155C62.4911 49.4973 62.5851 49.9746 62.7689 50.42C62.9527 50.8654 63.2227 51.2701 63.5634 51.6108C63.9041 51.9515 64.3087 52.2215 64.7541 52.4053C65.1995 52.5891 65.6768 52.683 66.1587 52.6817Z" fill="white" stroke="#2B2A29" stroke-width="0.7" stroke-linecap="round" stroke-linejoin="round"/>
</g>
<rect x="0.35" y="0.35" width="77.7219" height="77.7219" rx="38.8609" stroke="#2B2A29" stroke-width="0.7"/>
</svg>
