<svg width="22" height="22" viewBox="0 0 22 22" fill="none" xmlns="http://www.w3.org/2000/svg">
<g id="&#208;&#161;&#208;&#187;&#208;&#190;&#208;&#185; 2">
<path id="Vector" d="M19 1H3C1.89543 1 1 1.89543 1 3V19C1 20.1046 1.89543 21 3 21H19C20.1046 21 21 20.1046 21 19V3C21 1.89543 20.1046 1 19 1Z" fill="#B2E8F9" stroke="#2B2A29" stroke-width="0.5" stroke-linecap="round" stroke-linejoin="round"/>
<path id="Vector_2" d="M11.0002 20.3427C13.345 20.3427 15.2459 18.4419 15.2459 16.097C15.2459 13.7522 13.345 11.8513 11.0002 11.8513C8.65533 11.8513 6.75446 13.7522 6.75446 16.097C6.75446 18.4419 8.65533 20.3427 11.0002 20.3427Z" fill="#C5CEFB" stroke="#2B2A29" stroke-width="0.5" stroke-linecap="round" stroke-linejoin="round"/>
<path id="Vector_3" d="M15 2H7V8.8659H9.87117L11.0928 11L12.1746 8.8659H15V2Z" fill="white" stroke="#2B2A29" stroke-width="0.5" stroke-linecap="round" stroke-linejoin="round"/>
<path id="Vector_4" d="M11.4142 6.78284H10.5884V7.60855H11.4142V6.78284Z" fill="#FCBDBD" stroke="#2B2A29" stroke-width="0.5" stroke-linecap="round" stroke-linejoin="round"/>
<path id="Vector_5" d="M11.4142 2.86584H10.5884V6.0287H11.4142V2.86584Z" fill="#FCBDBD" stroke="#2B2A29" stroke-width="0.5" stroke-linecap="round" stroke-linejoin="round"/>
<path id="Vector_6" d="M13.7371 15.5428C13.7372 15.8137 13.6532 16.078 13.4966 16.2991C13.3401 16.5202 13.1188 16.6873 12.8632 16.7773C12.6077 16.8673 12.3305 16.8758 12.0699 16.8015C11.8094 16.7273 11.5783 16.574 11.4086 16.3628L13.2457 14.5256C13.3992 14.647 13.5231 14.8016 13.6083 14.9778C13.6934 15.1539 13.7374 15.3471 13.7371 15.5428Z" fill="#F5E9AA" stroke="#2B2A29" stroke-width="0.5" stroke-linecap="round" stroke-linejoin="round"/>
<path id="Vector_7" d="M8.21668 15.5428C8.21662 15.8137 8.30066 16.078 8.4572 16.2991C8.61374 16.5202 8.83505 16.6873 9.0906 16.7773C9.34615 16.8673 9.62333 16.8758 9.88389 16.8015C10.1444 16.7273 10.3755 16.574 10.5452 16.3628L8.70811 14.5256C8.55464 14.647 8.43068 14.8016 8.34557 14.9778C8.26045 15.1539 8.21638 15.3471 8.21668 15.5428Z" fill="#F5E9AA" stroke="#2B2A29" stroke-width="0.5" stroke-linecap="round" stroke-linejoin="round"/>
</g>
</svg>
