<svg width="42" height="41" viewBox="0 0 42 41" fill="none" xmlns="http://www.w3.org/2000/svg">
<g id="Group 9632">
<path id="Vector" d="M28.4814 21.5352H41L36.6645 30.9536L41 40.1203H26.2704V22.8492L28.4814 21.5352Z" fill="#BCF4AB" stroke="#2B2A29" stroke-width="0.7" stroke-linecap="round" stroke-linejoin="round"/>
<path id="Vector_2" d="M31.4242 26.7734L26.2704 40.1182V27.6783L31.4242 26.7734Z" fill="#C5CEFB" stroke="#2B2A29" stroke-width="0.7" stroke-linecap="round" stroke-linejoin="round"/>
<path id="Vector_3" d="M13.5265 21.5352H1L5.34335 30.9536L1 40.1203H15.7375V22.8492L13.5265 21.5352Z" fill="#BCF4AB" stroke="#2B2A29" stroke-width="0.7" stroke-linecap="round" stroke-linejoin="round"/>
<path id="Vector_4" d="M10.5769 26.7734L15.7386 40.1182V27.6783L10.5769 26.7734Z" fill="#C5CEFB" stroke="#2B2A29" stroke-width="0.7" stroke-linecap="round" stroke-linejoin="round"/>
<path id="Vector_5" d="M37.0828 9.38941L24.1787 1.93805C23.1127 1.32349 21.9038 1 20.6733 1C19.4428 1 18.234 1.32349 17.168 1.93805L4.26379 9.38941V28.3365L17.168 35.7879C18.234 36.4024 19.4428 36.7259 20.6733 36.7259C21.9038 36.7259 23.1127 36.4024 24.1787 35.7879L37.0828 28.3365V9.38941Z" fill="#E9B5F5" stroke="#2B2A29" stroke-width="0.7" stroke-linecap="round" stroke-linejoin="round"/>
<path id="Vector_6" d="M20.7083 6.00769L24.2412 13.1758L32.1568 14.3246L26.4286 19.9111L27.782 27.7953L20.7083 24.0735L13.6268 27.7953L14.9801 19.9111L9.25195 14.3246L17.1676 13.1758L20.7083 6.00769Z" fill="#F5E9AA" stroke="#2B2A29" stroke-width="0.7" stroke-linecap="round" stroke-linejoin="round"/>
</g>
</svg>
