<svg width="42" height="42" viewBox="0 0 42 42" fill="none" xmlns="http://www.w3.org/2000/svg">
<g id="&#208;&#161;&#208;&#187;&#208;&#190;&#208;&#185; 2">
<path id="Vector" d="M41 21.0129C40.9974 24.9671 39.8228 28.8317 37.6246 32.1186C35.4264 35.4054 32.3032 37.9668 28.6497 39.4792C24.9962 40.9916 20.9764 41.3871 17.0982 40.6157C13.22 39.8443 9.65752 37.9406 6.86091 35.1452C4.0643 32.3498 2.15907 28.7881 1.38598 24.9102C0.612897 21.0324 1.00665 17.0124 2.51749 13.3582C4.02832 9.7041 6.58843 6.57981 9.87431 4.38017C13.1602 2.18053 17.0244 1.00426 20.9785 1.00001C23.6078 0.997186 26.2119 1.51284 28.6418 2.51748C31.0716 3.52211 33.2795 4.99601 35.1391 6.85483C36.9987 8.71365 38.4736 10.9209 39.4792 13.3503C40.4849 15.7797 41.0017 18.3836 41 21.0129Z" fill="#B2E8F9" stroke="#2B2A29" stroke-width="0.7" stroke-linecap="round" stroke-linejoin="round"/>
<path id="Vector_2" d="M28.9673 21.0339V10.2538C28.9679 10.0007 28.9185 9.75007 28.8219 9.51619C28.7253 9.2823 28.5835 9.0698 28.4046 8.89087C28.2257 8.71195 28.0132 8.57013 27.7793 8.47356C27.5454 8.37699 27.2947 8.32756 27.0417 8.32813C26.789 8.32813 26.5388 8.37797 26.3054 8.47479C26.0721 8.57162 25.8601 8.71353 25.6816 8.8924C25.5031 9.07127 25.3617 9.28358 25.2654 9.51718C25.1691 9.75079 25.1198 10.0011 25.1204 10.2538V18.773L28.9673 21.0339Z" fill="#FFFDB9" stroke="#2B2A29" stroke-width="0.7" stroke-linecap="round" stroke-linejoin="round"/>
<path id="Vector_3" d="M26.7167 17.4647L24.3827 7.28199C24.3235 7.02599 24.2117 6.78512 24.0543 6.57473C23.8969 6.36435 23.6974 6.18907 23.4685 6.06007C23.2396 5.93106 22.9864 5.85117 22.7249 5.82547C22.4634 5.79978 22.1995 5.82885 21.9498 5.91083C21.4887 6.06135 21.1034 6.38407 20.8744 6.81169C20.6454 7.23932 20.5903 7.73885 20.7205 8.20612L22.9127 16.1666L26.7167 17.4647Z" fill="#FFFDB9" stroke="#2B2A29" stroke-width="0.7" stroke-linecap="round" stroke-linejoin="round"/>
<path id="Vector_4" d="M25.1832 15.0719L19.7244 7.63153C19.5633 7.41228 19.3591 7.22825 19.1243 7.09069C18.8896 6.95313 18.6292 6.86496 18.3592 6.83155C18.0892 6.79815 17.8152 6.82024 17.554 6.89645C17.2928 6.97266 17.0499 7.10139 16.8402 7.27477C16.439 7.60045 16.1794 8.06889 16.1161 8.5818C16.0528 9.09471 16.1906 9.6122 16.5007 10.0257L20.0983 14.8355L25.1832 15.0719Z" fill="#FFFDB9" stroke="#2B2A29" stroke-width="0.7" stroke-linecap="round" stroke-linejoin="round"/>
<path id="Vector_5" d="M26.4483 34.5008V32.5408C26.4482 31.668 26.6717 30.8097 27.0973 30.0478L28.4427 27.6493C28.8598 26.897 29.0787 26.0509 29.0788 25.1907V20.7076C29.0816 20.1491 28.9736 19.5957 28.7611 19.0793C28.5486 18.5628 28.2359 18.0936 27.8409 17.6988L25.292 15.1843C24.8289 14.7205 24.2788 14.3527 23.6732 14.1019C23.0677 13.8511 22.4186 13.7223 21.7631 13.7228H18.9005C18.2191 13.7217 17.5443 13.8556 16.915 14.1168C16.2857 14.378 15.7144 14.7612 15.234 15.2444L14.499 15.9752C14.3324 16.1416 14.2002 16.3393 14.11 16.5569C14.0199 16.7744 13.9734 17.0076 13.9734 17.2432C13.9734 17.4787 14.0199 17.7119 14.11 17.9295C14.2002 18.147 14.3324 18.3447 14.499 18.5112C14.6651 18.6776 14.8624 18.8097 15.0796 18.8998C15.2968 18.99 15.5297 19.0364 15.7649 19.0364C16 19.0364 16.2329 18.99 16.4501 18.8998C16.6673 18.8097 16.8646 18.6776 17.0307 18.5112L17.9376 17.6042C18.1999 17.3454 18.5535 17.2002 18.922 17.2002H20.8863C22.2317 17.7547 23.5039 20.5915 22.4767 22.6676C21.9308 23.5273 20.9765 26.2868 18.2815 25.2165C18.2815 25.2165 16.6353 23.5789 16.6353 22.9986V21.1374C16.6353 20.3594 16.1624 19.3837 15.436 19.1C14.2024 18.6229 12.8571 19.8092 12.8571 21.1331V24.6792C12.8572 26.0803 13.2391 27.4548 13.9617 28.6551L14.9202 30.2283C15.2049 30.7129 15.3534 31.2653 15.3501 31.8273V35.1714L26.4483 34.5008Z" fill="#FFFDB9" stroke="#2B2A29" stroke-width="0.7" stroke-linecap="round" stroke-linejoin="round"/>
<path id="Vector_6" d="M28.129 34.0276V39.6841C23.5641 41.4266 18.52 41.4418 13.9446 39.7271V34.0276H28.129Z" fill="#E9B5F5" stroke="#2B2A29" stroke-width="0.7" stroke-linecap="round" stroke-linejoin="round"/>
<path id="Vector_7" d="M8.7054 20.2008C8.70541 18.7172 8.11623 17.2943 7.0672 16.2443C6.01817 15.1943 4.59501 14.6031 3.11011 14.6004C3.84575 14.6004 4.57417 14.4555 5.25369 14.1739C5.93321 13.8923 6.55048 13.4796 7.07018 12.9595C7.58989 12.4393 8.00182 11.8218 8.28241 11.1424C8.563 10.463 8.70674 9.73497 8.7054 9C8.7054 9.73545 8.85039 10.4637 9.1321 11.1432C9.4138 11.8226 9.82669 12.44 10.3472 12.9601C10.8677 13.4801 11.4857 13.8926 12.1658 14.1741C12.8458 14.4555 13.5748 14.6004 14.3109 14.6004C13.5748 14.6004 12.8458 14.7452 12.1658 15.0267C11.4857 15.3081 10.8677 15.7207 10.3472 16.2407C9.82669 16.7607 9.4138 17.3781 9.1321 18.0576C8.85039 18.7371 8.7054 19.4653 8.7054 20.2008Z" fill="#BCF4AB" stroke="#2B2A29" stroke-width="0.7" stroke-linecap="round" stroke-linejoin="round"/>
<path id="Vector_8" d="M35.1814 28.2725C35.1814 26.9994 34.6757 25.7784 33.7755 24.8782C32.8752 23.978 31.6542 23.4722 30.3811 23.4722C31.6542 23.4722 32.8752 22.9665 33.7755 22.0662C34.6757 21.166 35.1814 19.945 35.1814 18.6719C35.1814 19.945 35.6872 21.166 36.5874 22.0662C37.4877 22.9665 38.7086 23.4722 39.9818 23.4722C38.7086 23.4722 37.4877 23.978 36.5874 24.8782C35.6872 25.7784 35.1814 26.9994 35.1814 28.2725Z" fill="#BCF4AB" stroke="#2B2A29" stroke-width="0.7" stroke-linecap="round" stroke-linejoin="round"/>
</g>
</svg>
