<svg width="42" height="43" viewBox="0 0 42 43" fill="none" xmlns="http://www.w3.org/2000/svg">
<g id="&#208;&#161;&#208;&#187;&#208;&#190;&#208;&#185; 9">
<g id="Vector">
<path d="M35.0668 16.1143C35.671 15.5445 36.1548 14.8593 36.4893 14.0992C36.8239 13.3391 37.0026 12.5195 37.0148 11.6891C37.0269 10.8587 36.8723 10.0343 36.5602 9.26473C36.248 8.49515 35.7845 7.79603 35.1973 7.20879C34.61 6.62154 33.9109 6.1581 33.1413 5.84591C32.3717 5.53372 31.5473 5.37913 30.7169 5.39129C29.8865 5.40345 29.067 5.58212 28.3069 5.91672C27.5468 6.25131 26.8615 6.73503 26.2917 7.33922" fill="#FFFDB9"/>
<path d="M35.0668 16.1143C35.671 15.5445 36.1548 14.8593 36.4893 14.0992C36.8239 13.3391 37.0026 12.5195 37.0148 11.6891C37.0269 10.8587 36.8723 10.0343 36.5602 9.26473C36.248 8.49515 35.7845 7.79603 35.1973 7.20879C34.61 6.62154 33.9109 6.1581 33.1413 5.84591C32.3717 5.53372 31.5473 5.37913 30.7169 5.39129C29.8865 5.40345 29.067 5.58212 28.3069 5.91672C27.5468 6.25131 26.8615 6.73503 26.2917 7.33922" stroke="#2B2A29" stroke-width="0.7" stroke-linecap="round" stroke-linejoin="round"/>
</g>
<path id="Vector_2" d="M17.6787 42.0488C26.8901 42.0488 34.3574 34.5815 34.3574 25.3701C34.3574 16.1587 26.8901 8.69141 17.6787 8.69141C8.46731 8.69141 1 16.1587 1 25.3701C1 34.5815 8.46731 42.0488 17.6787 42.0488Z" fill="#F5E9AA" stroke="#2B2A29" stroke-width="0.7" stroke-linecap="round" stroke-linejoin="round"/>
<g id="Vector_3">
<path d="M23.2225 41.1079L16.063 33.9484L20.4673 29.5508L28.753 37.8365" fill="#E9B5F5"/>
<path d="M23.2225 41.1079L16.063 33.9484L20.4673 29.5508L28.753 37.8365" stroke="#2B2A29" stroke-width="0.7" stroke-linecap="round" stroke-linejoin="round"/>
</g>
<path id="Vector_4" d="M17.5604 17.235L6.79541 28L14.4034 35.608L25.1684 24.843L17.5604 17.235Z" fill="#BCF4AB" stroke="#2B2A29" stroke-width="0.7" stroke-linecap="round" stroke-linejoin="round"/>
<path id="Vector_5" d="M19.9572 1L41 22.0428L25.1659 24.8449L17.564 17.2363L19.9572 1Z" fill="#B2E8F9" stroke="#2B2A29" stroke-width="0.7" stroke-linecap="round" stroke-linejoin="round"/>
</g>
</svg>
