<svg width="42" height="41" viewBox="0 0 42 41" fill="none" xmlns="http://www.w3.org/2000/svg">
<g id="&#208;&#161;&#208;&#187;&#208;&#190;&#208;&#185; 5">
<path id="Vector" d="M21.2536 40.4928C32.1593 40.4928 41 31.6521 41 20.7464C41 9.84078 32.1593 1 21.2536 1C10.348 1 1.5072 9.84078 1.5072 20.7464C1.5072 31.6521 10.348 40.4928 21.2536 40.4928Z" fill="url(#paint0_linear_21_214)"/>
<path id="Vector_2" d="M33.4066 5.375C36.5834 7.94018 38.8869 11.4271 39.9999 15.3556C41.113 19.2842 40.9808 23.4612 39.6215 27.3115C38.2623 31.1618 35.7429 34.4961 32.4102 36.8552C29.0776 39.2144 25.0955 40.4824 21.0123 40.4847C19.8582 40.4879 18.7061 40.3888 17.5695 40.1885" stroke="#2B2A29" stroke-width="0.7" stroke-linecap="round" stroke-linejoin="round"/>
<path id="Vector_3" d="M7.40088 35.0732C4.53389 32.3538 2.54874 28.8368 1.70215 24.977C0.855571 21.1172 1.1865 17.0921 2.65214 13.4225C4.11779 9.75276 6.65073 6.6072 9.92338 4.39259C13.196 2.17798 17.0579 0.99619 21.0094 1.00006C21.9634 0.997742 22.9163 1.06704 23.8599 1.20737" stroke="#2B2A29" stroke-width="0.7" stroke-linecap="round" stroke-linejoin="round"/>
<g id="Group 9610">
<path id="Vector_4" d="M14.9775 10.6341H26.8233C27.1699 10.6341 27.5023 10.7718 27.7473 11.0169C27.9924 11.2619 28.1301 11.5943 28.1301 11.9409V15.8612C28.1302 16.0336 28.0962 16.2044 28.0301 16.3636C27.9639 16.5228 27.8669 16.6674 27.7446 16.789L23.6936 19.7619C23.5721 19.8832 23.4757 20.0274 23.41 20.186C23.3442 20.3446 23.3104 20.5147 23.3104 20.6864C23.3104 20.8581 23.3442 21.0282 23.41 21.1868C23.4757 21.3455 23.5721 21.4896 23.6936 21.6109L27.9471 24.4924C28.0682 24.6145 28.1641 24.7593 28.2291 24.9185C28.2941 25.0777 28.3271 25.2482 28.3261 25.4202V30.118C28.3261 30.4646 28.1884 30.797 27.9434 31.042C27.6983 31.2871 27.3659 31.4248 27.0193 31.4248H14.984C14.6374 31.4248 14.3051 31.2871 14.06 31.042C13.8149 30.797 13.6772 30.4646 13.6772 30.118V25.3744C13.6787 25.0284 13.8173 24.6971 14.0627 24.4532L17.983 21.4737C18.2264 21.2289 18.363 20.8977 18.363 20.5525C18.363 20.2072 18.2264 19.876 17.983 19.6312L14.0627 16.6256C13.9404 16.5041 13.8434 16.3595 13.7773 16.2003C13.7111 16.041 13.6771 15.8703 13.6772 15.6978V11.9343C13.679 11.59 13.8165 11.2603 14.06 11.0168C14.3034 10.7734 14.6332 10.6358 14.9775 10.6341Z" fill="#F5E9AA"/>
<path id="Vector_5" d="M14.9775 10.6341H26.8233C27.1699 10.6341 27.5023 10.7718 27.7473 11.0169C27.9924 11.2619 28.1301 11.5943 28.1301 11.9409V15.8612C28.1302 16.0336 28.0962 16.2044 28.0301 16.3636C27.9639 16.5228 27.8669 16.6674 27.7446 16.789L23.6936 19.7619C23.5721 19.8832 23.4757 20.0274 23.41 20.186C23.3442 20.3446 23.3104 20.5147 23.3104 20.6864C23.3104 20.8581 23.3442 21.0282 23.41 21.1868C23.4757 21.3455 23.5721 21.4896 23.6936 21.6109L27.9471 24.4924C28.0682 24.6145 28.1641 24.7593 28.2291 24.9185C28.2941 25.0777 28.3271 25.2482 28.3261 25.4202V30.118C28.3261 30.4646 28.1884 30.797 27.9434 31.042C27.6983 31.2871 27.3659 31.4248 27.0193 31.4248H14.984C14.6374 31.4248 14.3051 31.2871 14.06 31.042C13.8149 30.797 13.6772 30.4646 13.6772 30.118V25.3744C13.6787 25.0284 13.8173 24.6971 14.0627 24.4532L17.983 21.4737C18.2264 21.2289 18.363 20.8977 18.363 20.5525C18.363 20.2072 18.2264 19.876 17.983 19.6312L14.0627 16.6256C13.9404 16.5041 13.8434 16.3595 13.7773 16.2003C13.7111 16.041 13.6771 15.8703 13.6772 15.6978V11.9343C13.679 11.59 13.8165 11.2603 14.06 11.0168C14.3034 10.7734 14.6332 10.6358 14.9775 10.6341Z" stroke="#2B2A29" stroke-width="0.7" stroke-linecap="round" stroke-linejoin="round"/>
</g>
<path id="Vector_6" d="M33.0834 12.2847V5.125H40.7243" stroke="#2B2A29" stroke-width="0.7" stroke-linecap="round" stroke-linejoin="round"/>
<path id="Vector_7" d="M1 35.4801H7.8783V28.276" stroke="#2B2A29" stroke-width="0.7" stroke-linecap="round" stroke-linejoin="round"/>
</g>
<defs>
<linearGradient id="paint0_linear_21_214" x1="21.2536" y1="1" x2="21.2536" y2="40.4928" gradientUnits="userSpaceOnUse">
<stop stop-color="#FFFDB9"/>
<stop offset="1" stop-color="#F5CAB1"/>
</linearGradient>
</defs>
</svg>
