<svg width="16" height="18" viewBox="0 0 16 18" fill="none" xmlns="http://www.w3.org/2000/svg">
<g id="&#208;&#161;&#208;&#187;&#208;&#190;&#208;&#185; 3">
<path id="Vector" d="M1 7.57302L7.8106 1L14.9993 7.47083L8.17846 15.569L1 7.57302Z" fill="#C5CEFB"/>
<path id="Vector_2" d="M13.6519 3.64062H2.13831V14.7455H13.6519V3.64062Z" fill="white"/>
<path id="Vector_3" d="M1 7.57031L6.63037 13.124L7.84636 12.4598L9.20797 13.1726L14.9993 7.57031V16.8691H1V7.57031Z" fill="#BCF4AB"/>
<path id="Vector_4" d="M9.20797 13.1726L14.9993 7.57031V16.8691H1V7.57031L6.63037 13.124" stroke="#2B2A29" stroke-width="0.4" stroke-linecap="round" stroke-linejoin="round"/>
<path id="Vector_5" d="M1 16.2099L7.84636 12.4648L14.9993 16.2099" stroke="#2B2A29" stroke-width="0.4" stroke-linecap="round" stroke-linejoin="round"/>
<path id="Vector_6" d="M13.6519 8.87758V3.64062H2.13831V8.70131" stroke="#2B2A29" stroke-width="0.4" stroke-linecap="round" stroke-linejoin="round"/>
<path id="Vector_7" d="M5.17102 3.63892L7.80994 1L10.7426 3.63892" stroke="#2B2A29" stroke-width="0.4" stroke-linecap="round" stroke-linejoin="round"/>
<path id="Vector_8" d="M15 7.57614L13.6869 6.26562" stroke="#2B2A29" stroke-width="0.4" stroke-linecap="round" stroke-linejoin="round"/>
<path id="Vector_9" d="M1 7.57624L2.03717 6.53906" stroke="#2B2A29" stroke-width="0.4" stroke-linecap="round" stroke-linejoin="round"/>
<path id="Vector_10" d="M4.0127 5.24219H11.6076" stroke="#2B2A29" stroke-width="0.4" stroke-linecap="round" stroke-linejoin="round"/>
<path id="Vector_11" d="M4.0127 6.92188H11.6076" stroke="#2B2A29" stroke-width="0.4" stroke-linecap="round" stroke-linejoin="round"/>
<path id="Vector_12" d="M4.0127 8.58203H11.6076" stroke="#2B2A29" stroke-width="0.4" stroke-linecap="round" stroke-linejoin="round"/>
</g>
</svg>
