<svg width="16" height="10" viewBox="0 0 16 10" fill="none" xmlns="http://www.w3.org/2000/svg">
<g id="Group 7297">
<path id="Vector" d="M15 5.01914C15 5.01914 11.8651 9.03828 8 9.03828C4.13493 9.03828 1 5.01914 1 5.01914C1 5.01914 4.13493 1 8 1C11.8651 1 15 5.01914 15 5.01914Z" fill="white" stroke="#2B2A29" stroke-width="0.4" stroke-linecap="round" stroke-linejoin="round"/>
<path id="Vector_2" d="M8.00505 7.88631C9.58844 7.88631 10.872 6.60272 10.872 5.01933C10.872 3.43594 9.58844 2.15234 8.00505 2.15234C6.42165 2.15234 5.13806 3.43594 5.13806 5.01933C5.13806 6.60272 6.42165 7.88631 8.00505 7.88631Z" fill="#B5DEF5" stroke="#2B2A29" stroke-width="0.4" stroke-linecap="round" stroke-linejoin="round"/>
<path id="Vector_3" d="M8.00068 6.43226C8.78127 6.43226 9.41407 5.79946 9.41407 5.01887C9.41407 4.23827 8.78127 3.60547 8.00068 3.60547C7.22008 3.60547 6.58728 4.23827 6.58728 5.01887C6.58728 5.79946 7.22008 6.43226 8.00068 6.43226Z" fill="#2B2A29"/>
</g>
</svg>
