<svg width="42" height="43" viewBox="0 0 42 43" fill="none" xmlns="http://www.w3.org/2000/svg">
<g id="&#208;&#161;&#208;&#187;&#208;&#190;&#208;&#185; 12">
<path id="Vector" d="M40.9044 27.5204C40.3165 29.502 37.0667 30.2483 35.9504 31.8864C34.8341 33.5245 35.2899 36.8602 33.6782 38.0888C32.0665 39.3174 29.0149 38.0227 27.073 38.7097C25.131 39.3966 23.6514 42.3426 21.5972 42.402C19.543 42.4615 17.9181 39.6212 15.9101 39.0267C13.9021 38.4323 10.9429 39.9118 9.30483 38.7955C7.66673 37.6793 7.91773 34.3238 6.66273 32.7319C5.40773 31.1401 2.14474 30.572 1.4644 28.6565C0.784056 26.741 2.95718 24.264 2.90434 22.2098C2.8515 20.1555 0.506636 17.8635 1.0945 15.8555C1.68237 13.8475 4.92555 13.1275 6.04844 11.4894C7.17134 9.85133 6.70897 6.51567 8.32065 5.2871C9.93233 4.05852 12.9774 5.35315 14.9259 4.6662C16.8745 3.97926 18.3738 1.03331 20.4281 1.00029C22.4823 0.967262 24.1072 3.7811 26.1152 4.36897C28.1232 4.95683 31.0757 3.49047 32.7204 4.60676C34.3652 5.72304 34.1142 9.07851 35.3625 10.6704C36.6109 12.2622 39.8739 12.8303 40.5609 14.7458C41.2478 16.6613 39.0615 19.1383 39.1209 21.1925C39.1804 23.2468 41.4922 25.5124 40.9044 27.5204Z" fill="#BCF4AB"/>
<path id="Vector_2" d="M40.9044 27.5204C40.3165 29.502 37.0667 30.2483 35.9504 31.8864C34.8341 33.5245 35.2899 36.8602 33.6782 38.0888C32.0665 39.3174 29.0149 38.0227 27.073 38.7097C25.131 39.3966 23.6514 42.3426 21.5972 42.402C19.543 42.4615 17.9181 39.6212 15.9101 39.0267C13.9021 38.4323 10.9429 39.9118 9.30483 38.7955C7.66673 37.6793 7.91773 34.3238 6.66273 32.7319C5.40773 31.1401 2.14474 30.572 1.4644 28.6565C0.784056 26.741 2.95718 24.264 2.90434 22.2098C2.8515 20.1555 0.506636 17.8635 1.0945 15.8555C1.68237 13.8475 4.92555 13.1275 6.04844 11.4894C7.17134 9.85133 6.70897 6.51567 8.32065 5.2871C9.93233 4.05852 12.9774 5.35315 14.9259 4.6662C16.8745 3.97926 18.3738 1.03331 20.4281 1.00029C22.4823 0.967262 24.1072 3.7811 26.1152 4.36897C28.1232 4.95683 31.0757 3.49047 32.7204 4.60676C34.3652 5.72304 34.1142 9.07851 35.3625 10.6704C36.6109 12.2622 39.8739 12.8303 40.5609 14.7458C41.2478 16.6613 39.0615 19.1383 39.1209 21.1925C39.1804 23.2468 41.4922 25.5124 40.9044 27.5204Z" stroke="#2B2A29" stroke-width="0.7" stroke-linecap="round" stroke-linejoin="round"/>
<path id="Vector_3" d="M21.0209 35.0731C28.4117 35.0731 34.4032 29.0816 34.4032 21.6908C34.4032 14.3 28.4117 8.30859 21.0209 8.30859C13.6301 8.30859 7.63867 14.3 7.63867 21.6908C7.63867 29.0816 13.6301 35.0731 21.0209 35.0731Z" fill="#B2E8F9" stroke="#2B2A29" stroke-width="0.7" stroke-linecap="round" stroke-linejoin="round"/>
<path id="Vector_4" d="M21.0223 13.0236L23.7503 18.5389L29.8337 19.424L25.428 23.7175L26.4717 29.7811L21.0223 26.921L15.5796 29.7811L16.6166 23.7175L12.2109 19.424L18.301 18.5389L21.0223 13.0236Z" fill="#FFFDB9" stroke="#2B2A29" stroke-width="0.7" stroke-linecap="round" stroke-linejoin="round"/>
</g>
</svg>
