<svg width="40" height="40" viewBox="0 0 40 40" fill="none" xmlns="http://www.w3.org/2000/svg">
<g id="Group 10314">
<circle id="Ellipse 247" cx="20" cy="20" r="19.65" fill="#B2E8F9" stroke="#2B2A29" stroke-width="0.7"/>
<g id="&#208;&#161;&#208;&#187;&#208;&#190;&#208;&#185; 2">
<path id="Vector" d="M14.2782 6.67188H25.5589L24.7189 12.3018H15.7377L14.2782 6.67188Z" fill="#E9B5F5" stroke="#2B2A29" stroke-width="0.7" stroke-linecap="round" stroke-linejoin="round"/>
<path id="Vector_2" d="M19.0222 17.2249L25.5586 6.67188L29.1677 12.0856L24.964 18.7592L19.0222 17.2249Z" fill="#FFFDB9" stroke="#2B2A29" stroke-width="0.7" stroke-linecap="round" stroke-linejoin="round"/>
<path id="Vector_3" d="M20.8113 17.2249L14.2791 6.67188L10.6658 12.0856L14.8695 18.7592L20.8113 17.2249Z" fill="#FFFDB9" stroke="#2B2A29" stroke-width="0.7" stroke-linecap="round" stroke-linejoin="round"/>
<path id="Vector_4" d="M19.9463 34.6727C24.7779 34.6727 28.6948 30.7559 28.6948 25.9242C28.6948 21.0926 24.7779 17.1758 19.9463 17.1758C15.1147 17.1758 11.1979 21.0926 11.1979 25.9242C11.1979 30.7559 15.1147 34.6727 19.9463 34.6727Z" fill="#BCF4AB" stroke="#2B2A29" stroke-width="0.7" stroke-linecap="round" stroke-linejoin="round"/>
<path id="Vector_5" d="M19.9475 21.4141L21.2406 24.0336L24.1304 24.4536L22.039 26.491L22.5338 29.3725L19.9475 28.0128L17.3612 29.3725L17.856 26.491L15.7645 24.4536L18.6543 24.0336L19.9475 21.4141Z" fill="#F5E9AA" stroke="#2B2A29" stroke-width="0.7" stroke-linecap="round" stroke-linejoin="round"/>
<path id="Vector_6" d="M19.9464 32.6659C19.0613 32.6659 18.1848 32.4916 17.3671 32.1528C16.5493 31.8141 15.8063 31.3176 15.1804 30.6918C14.5546 30.0659 14.0581 29.3229 13.7194 28.5051C13.3806 27.6874 13.2063 26.8109 13.2063 25.9258" stroke="#2B2A29" stroke-width="0.7" stroke-linecap="round" stroke-linejoin="round"/>
<path id="Vector_7" d="M19.9447 19.1797C21.7323 19.1797 23.4467 19.8898 24.7107 21.1538C25.9747 22.4178 26.6848 24.1322 26.6848 25.9198" stroke="#2B2A29" stroke-width="0.7" stroke-linecap="round" stroke-linejoin="round"/>
</g>
</g>
</svg>
