<svg width="16" height="12" viewBox="0 0 16 12" fill="none" xmlns="http://www.w3.org/2000/svg">
<g id="Group 8005">
<g id="&#208;&#161;&#208;&#187;&#208;&#190;&#208;&#185; 2">
<path id="Vector" d="M10.6449 5.16719C10.6449 5.61977 10.5107 6.06219 10.2593 6.43849C10.0078 6.8148 9.65046 7.10809 9.23233 7.28129C8.8142 7.45448 8.3541 7.4998 7.91022 7.4115C7.46634 7.32321 7.05861 7.10527 6.73858 6.78525C6.41856 6.46523 6.20062 6.05749 6.11233 5.61361C6.02404 5.16973 6.06935 4.70963 6.24255 4.2915C6.41574 3.87337 6.70903 3.51599 7.08534 3.26455C7.46165 3.01311 7.90406 2.87891 8.35664 2.87891C8.65721 2.87867 8.95487 2.9377 9.23261 3.05262C9.51034 3.16753 9.76269 3.33608 9.97522 3.54861C10.1878 3.76114 10.3563 4.01349 10.4712 4.29123C10.5861 4.56896 10.6452 4.86662 10.6449 5.16719V5.16719Z" stroke="#B2E8F9" stroke-width="0.35" stroke-miterlimit="10"/>
<path id="Vector_2" d="M14.1158 1H2.64078C2.51925 1.00015 2.39905 1.02535 2.28769 1.07403C2.17633 1.12271 2.0762 1.19383 1.99355 1.28294C1.97989 1.29407 1.96797 1.30719 1.95819 1.32185C1.82778 1.48023 1.75651 1.67903 1.75659 1.88419V8.68538C1.75659 8.91988 1.84975 9.14477 2.01556 9.31059C2.18138 9.47641 2.40628 9.56956 2.64078 9.56956H14.1158C14.3498 9.56952 14.5743 9.47667 14.74 9.31138C14.7527 9.29927 14.7645 9.28627 14.7754 9.27248C14.9201 9.11187 15.0001 8.90332 15 8.68714V1.88419C15 1.64969 14.9068 1.42479 14.741 1.25897C14.5752 1.09316 14.3503 1 14.1158 1ZM13.939 6.917C13.7317 6.91676 13.5264 6.95739 13.3348 7.03656C13.1432 7.11573 12.9691 7.23188 12.8224 7.37838C12.6758 7.52488 12.5594 7.69885 12.48 7.89034C12.4007 8.08183 12.3598 8.2871 12.3598 8.49439C12.3598 8.5333 12.3598 8.57043 12.3598 8.60757H2.75573V3.69855C2.96302 3.69878 3.16833 3.65815 3.35991 3.57898C3.55149 3.49981 3.72559 3.38366 3.87226 3.23716C4.01892 3.09067 4.13527 2.9167 4.21465 2.7252C4.29403 2.53371 4.33489 2.32845 4.33489 2.12115C4.33489 2.06633 4.33489 2.01328 4.33489 1.962H12.3775C12.3747 2.01501 12.3747 2.06814 12.3775 2.12115C12.3775 2.32845 12.4183 2.53371 12.4977 2.7252C12.5771 2.9167 12.6934 3.09067 12.8401 3.23716C12.9868 3.38366 13.1609 3.49981 13.3525 3.57898C13.544 3.65815 13.7493 3.69878 13.9566 3.69855H14.0079V6.90992L13.939 6.917Z" fill="#BCF4AB" stroke="#2B2A29" stroke-width="0.35" stroke-linecap="round" stroke-linejoin="round"/>
<path id="Vector_3" d="M10.6449 5.16719C10.6449 5.61977 10.5107 6.06219 10.2593 6.43849C10.0078 6.8148 9.65046 7.10809 9.23233 7.28129C8.8142 7.45448 8.3541 7.4998 7.91022 7.4115C7.46634 7.32321 7.05861 7.10527 6.73858 6.78525C6.41856 6.46523 6.20062 6.05749 6.11233 5.61361C6.02404 5.16973 6.06935 4.70963 6.24255 4.2915C6.41574 3.87337 6.70903 3.51599 7.08534 3.26455C7.46165 3.01311 7.90406 2.87891 8.35664 2.87891C8.65721 2.87867 8.95487 2.9377 9.23261 3.05262C9.51034 3.16753 9.76269 3.33608 9.97522 3.54861C10.1878 3.76114 10.3563 4.01349 10.4712 4.29123C10.5861 4.56896 10.6452 4.86662 10.6449 5.16719V5.16719Z" stroke="#B2E8F9" stroke-width="0.35" stroke-miterlimit="10"/>
<path id="Vector_4" d="M13.9515 3.69749C13.7442 3.69772 13.5389 3.65709 13.3473 3.57792C13.1557 3.49875 12.9816 3.3826 12.8349 3.2361C12.6883 3.08961 12.5719 2.91564 12.4925 2.72414C12.4132 2.53265 12.3723 2.32739 12.3723 2.12009C12.3696 2.06708 12.3696 2.01395 12.3723 1.96094H4.33856C4.33856 2.01222 4.33856 2.06527 4.33856 2.12009C4.33856 2.32739 4.2977 2.53265 4.21832 2.72414C4.13894 2.91564 4.02259 3.08961 3.87593 3.2361C3.72927 3.3826 3.55517 3.49875 3.36359 3.57792C3.172 3.65709 2.96669 3.69772 2.7594 3.69749V8.60297H12.3776C12.3776 8.56583 12.3776 8.5287 12.3776 8.48979C12.3776 8.2825 12.4185 8.07724 12.4979 7.88574C12.5772 7.69425 12.6936 7.52028 12.8402 7.37378C12.9869 7.22728 13.161 7.11113 13.3526 7.03196C13.5442 6.9528 13.7495 6.91217 13.9568 6.9124H14.0081V3.69572L13.9515 3.69749ZM8.35809 7.45352C7.90543 7.45352 7.46295 7.31927 7.0866 7.06775C6.71026 6.81624 6.41696 6.45875 6.24382 6.04052C6.07068 5.62229 6.02547 5.1621 6.1139 4.71817C6.20234 4.27424 6.42045 3.86651 6.74065 3.54655C7.06085 3.2266 7.46875 3.00881 7.91275 2.92071C8.35675 2.83262 8.8169 2.87819 9.235 3.05165C9.6531 3.22512 10.0104 3.51869 10.2616 3.89523C10.5128 4.27176 10.6467 4.71435 10.6464 5.16701C10.6464 5.46743 10.5872 5.7649 10.4722 6.04243C10.3571 6.31996 10.1886 6.5721 9.97604 6.78444C9.76353 6.99679 9.51126 7.16518 9.23364 7.27998C8.95603 7.39478 8.65851 7.45375 8.35809 7.45352Z" fill="#B2E8F9" stroke="#2B2A29" stroke-width="0.35" stroke-miterlimit="10"/>
<path id="Vector_5" d="M10.6449 5.16719C10.6449 5.61977 10.5107 6.06219 10.2593 6.43849C10.0078 6.8148 9.65046 7.10809 9.23233 7.28129C8.8142 7.45448 8.3541 7.4998 7.91022 7.4115C7.46634 7.32321 7.05861 7.10527 6.73858 6.78525C6.41856 6.46523 6.20062 6.05749 6.11233 5.61361C6.02404 5.16973 6.06935 4.70963 6.24255 4.2915C6.41574 3.87337 6.70903 3.51599 7.08534 3.26455C7.46165 3.01311 7.90406 2.87891 8.35664 2.87891C8.65721 2.87867 8.95487 2.9377 9.23261 3.05262C9.51034 3.16753 9.76269 3.33608 9.97522 3.54861C10.1878 3.76114 10.3563 4.01349 10.4712 4.29123C10.5861 4.56896 10.6452 4.86662 10.6449 5.16719Z" fill="#BCF4AB" stroke="#2B2A29" stroke-width="0.35" stroke-linecap="round" stroke-linejoin="round"/>
<path id="Vector_6" d="M7.88961 7.95438C7.88926 8.63555 7.68697 9.30132 7.30832 9.86755C6.92966 10.4338 6.39164 10.875 5.76226 11.1355C5.13287 11.396 4.44038 11.4641 3.77232 11.3311C3.10426 11.1982 2.49062 10.8701 2.00896 10.3885C1.5273 9.9068 1.19925 9.29316 1.06628 8.6251C0.933304 7.95703 1.00137 7.26455 1.26188 6.63516C1.52239 6.00578 1.96365 5.46776 2.52987 5.0891C3.0961 4.71045 3.76187 4.50816 4.44303 4.50781C4.89571 4.50758 5.34399 4.59657 5.76226 4.76969C6.18052 4.94282 6.56056 5.19668 6.88065 5.51677C7.20074 5.83686 7.4546 6.2169 7.62772 6.63516C7.80085 7.05343 7.88984 7.50171 7.88961 7.95438Z" fill="#F5E9AA" stroke="#2B2A29" stroke-width="0.35" stroke-linecap="round" stroke-linejoin="round"/>
<path id="Vector_7" d="M9.40762 5.98449C9.24366 6.17115 9.02733 6.30415 8.78676 6.36619C8.54619 6.42824 8.29252 6.41646 8.05873 6.33239C7.82495 6.24832 7.62187 6.09585 7.47591 5.89481C7.32995 5.69377 7.24786 5.45345 7.24032 5.20513C7.23278 4.9568 7.30013 4.71195 7.43363 4.50242C7.56712 4.29289 7.76057 4.12838 7.98883 4.03028C8.21708 3.93218 8.46957 3.90503 8.71346 3.95236C8.95735 3.9997 9.18136 4.11933 9.35634 4.29569" stroke="#2B2A29" stroke-width="0.35" stroke-linecap="round" stroke-linejoin="round"/>
<path id="Vector_8" d="M6.84778 4.95703H8.54896" stroke="#2B2A29" stroke-width="0.35" stroke-linecap="round" stroke-linejoin="round"/>
<path id="Vector_9" d="M6.84778 5.39453H8.54896" stroke="#2B2A29" stroke-width="0.35" stroke-linecap="round" stroke-linejoin="round"/>
<path id="Vector_10" d="M5.62283 8.91947C5.42846 9.13733 5.17312 9.29178 4.88992 9.3628C4.60673 9.43381 4.30873 9.41811 4.03456 9.31773C3.76039 9.21736 3.5227 9.03694 3.3523 8.79986C3.18189 8.56278 3.08664 8.27998 3.07888 7.98812C3.07113 7.69625 3.15123 7.40879 3.3088 7.163C3.46637 6.9172 3.69415 6.72441 3.9626 6.60962C4.23105 6.49482 4.5278 6.46332 4.81436 6.51919C5.10093 6.57507 5.36411 6.71574 5.56977 6.92297" stroke="#2B2A29" stroke-width="0.35" stroke-linecap="round" stroke-linejoin="round"/>
<path id="Vector_11" d="M2.59521 7.71094H4.60586" stroke="#2B2A29" stroke-width="0.35" stroke-linecap="round" stroke-linejoin="round"/>
<path id="Vector_12" d="M2.59521 8.21875H4.60586" stroke="#2B2A29" stroke-width="0.35" stroke-linecap="round" stroke-linejoin="round"/>
<path id="Vector_13" d="M6.94446 7.95752C6.94446 8.45207 6.79781 8.93551 6.52305 9.34672C6.24829 9.75792 5.85777 10.0784 5.40087 10.2677C4.94396 10.4569 4.4412 10.5064 3.95615 10.41C3.4711 10.3135 3.02556 10.0753 2.67586 9.72563C2.32616 9.37593 2.08801 8.93039 1.99153 8.44534C1.89505 7.96029 1.94456 7.45753 2.13382 7.00062C2.32308 6.54372 2.64357 6.1532 3.05477 5.87844C3.46598 5.60368 3.94942 5.45703 4.44397 5.45703C5.10714 5.45703 5.74315 5.72047 6.21208 6.18941C6.68102 6.65834 6.94446 7.29435 6.94446 7.95752V7.95752Z" stroke="#2B2A29" stroke-width="0.35" stroke-linecap="round" stroke-linejoin="round"/>
</g>
</g>
</svg>
